<svg xmlns="http://www.w3.org/2000/svg" viewBox="0 0 12 12" focusable="false" class="chakra-icon css-qq6i6z"><path d="M8.0043 11.5961C8.00434 11.6592 7.98645 11.7211 7.9527 11.7744C7.91895 11.8278 7.87073 11.8705 7.81366 11.8975C7.7566 11.9246 7.69302 11.9348 7.63035 11.9271C7.56767 11.9194 7.50847 11.8941 7.45964 11.8541L3.93097 8.96539L1.33764 8.96605C1.16082 8.96605 0.991255 8.89582 0.866231 8.77079C0.741207 8.64577 0.670969 8.4762 0.670969 8.29939V4.29939C0.670969 4.12258 0.741207 3.95301 0.866231 3.82798C0.991255 3.70296 1.16082 3.63272 1.33764 3.63272L3.0603 3.63139L0.542969 1.11405L1.48564 0.171387L8.0043 6.69005V11.5961ZM7.92897 0.792053C7.9776 0.8515 8.00421 0.925916 8.0043 1.00272V4.80405L5.52563 2.32605L7.45964 0.74472C7.49351 0.716946 7.53252 0.69612 7.57445 0.683433C7.61637 0.670746 7.66039 0.666446 7.70397 0.67078C7.74756 0.675114 7.78987 0.687997 7.82847 0.708691C7.86708 0.729386 7.90123 0.758153 7.92897 0.792053Z"/></svg>