<svg width="155" height="28" viewBox="0 0 155 28" fill="none" xmlns="http://www.w3.org/2000/svg">
<g clip-path="url(#clip0_1_2)">
<path d="M45.3376 11.8602C45.3397 11.6881 45.408 11.5235 45.5281 11.4018C45.6482 11.28 45.8104 11.2107 45.9802 11.2086H46.8609C47.0307 11.2107 47.1929 11.28 47.313 11.4018C47.4331 11.5235 47.5014 11.6881 47.5035 11.8602V18.2321C47.5035 19.4711 47.7774 20.3963 48.3252 21.0077C48.873 21.6192 49.6701 21.9257 50.7166 21.9272C51.7171 21.9272 52.5025 21.6207 53.073 21.0077C53.6434 20.3948 53.9305 19.4696 53.9342 18.2321V11.8602C53.9369 11.6882 54.0055 11.524 54.1255 11.4024C54.2454 11.2808 54.4074 11.2112 54.577 11.2086H55.4575C55.6276 11.2101 55.7901 11.2792 55.9104 11.4011C56.0305 11.523 56.0988 11.6879 56.1003 11.8602V23.1076C56.0988 23.2799 56.0305 23.4448 55.9104 23.5667C55.7901 23.6886 55.6276 23.7577 55.4575 23.7592H54.577C54.4074 23.7566 54.2454 23.687 54.1255 23.5654C54.0055 23.4438 53.9369 23.2796 53.9342 23.1076V22.3594C53.5776 22.8103 53.1419 23.1905 52.6491 23.4811C52.0907 23.8259 51.3276 23.9983 50.3596 23.9983C49.66 24.0066 48.9653 23.8795 48.3127 23.6236C47.7039 23.3881 47.1536 23.0194 46.7011 22.5439C46.2486 22.0683 45.905 21.4976 45.6946 20.8721C45.4465 20.1403 45.3257 19.3703 45.3376 18.5965V11.8602Z" fill="white"/>
<path d="M60.8797 8.65023C60.8778 8.82243 60.8095 8.98697 60.6894 9.10873C60.5693 9.23053 60.4071 9.29983 60.2372 9.30193H58.8771C58.7085 9.29807 58.548 9.22797 58.4294 9.10637C58.3108 8.9848 58.2432 8.82127 58.2413 8.65023V7.27106C58.2432 7.09889 58.3118 6.93433 58.4318 6.81258C58.5519 6.69082 58.7142 6.62149 58.8838 6.61938H60.2441C60.4137 6.62149 60.576 6.69082 60.6961 6.81258C60.8161 6.93433 60.8844 7.09889 60.8866 7.27106L60.8797 8.65023ZM60.6418 23.1077C60.6398 23.2798 60.5713 23.4444 60.4512 23.5661C60.3311 23.6879 60.1689 23.7572 59.9993 23.7593H59.1185C58.9486 23.7572 58.7864 23.6879 58.6663 23.5661C58.5463 23.4444 58.478 23.2798 58.476 23.1077V11.8603C58.478 11.6881 58.5463 11.5236 58.6663 11.4018C58.7864 11.2801 58.9486 11.2107 59.1185 11.2087H59.9993C60.1689 11.2107 60.3311 11.2801 60.4512 11.4018C60.5713 11.5236 60.6398 11.6881 60.6418 11.8603V23.1077Z" fill="white"/>
<path d="M65.1877 23.1076C65.1857 23.2798 65.1177 23.4444 64.9973 23.5661C64.8773 23.6879 64.715 23.7572 64.5453 23.7593H63.6647C63.495 23.7572 63.3327 23.6879 63.2127 23.5661C63.0923 23.4444 63.024 23.2798 63.022 23.1076V7.27448C63.024 7.10228 63.0923 6.93775 63.2127 6.81599C63.3327 6.69421 63.495 6.62489 63.6647 6.6228H64.5453C64.715 6.62489 64.8773 6.69421 64.9973 6.81599C65.1177 6.93775 65.1857 7.10228 65.1877 7.27448V23.1076Z" fill="white"/>
<path d="M72.376 10.9673C73.3583 10.9673 74.1437 11.1401 74.7323 11.4856C75.2447 11.7679 75.6973 12.1494 76.065 12.6085V7.27448C76.0673 7.10228 76.1357 6.93775 76.2557 6.81599C76.3757 6.69421 76.538 6.62489 76.708 6.6228H77.5883C77.7583 6.62489 77.9207 6.69421 78.0407 6.81599C78.1607 6.93775 78.229 7.10228 78.2313 7.27448V23.1076C78.229 23.2798 78.1607 23.4443 78.0407 23.5661C77.9207 23.6879 77.7583 23.7572 77.5883 23.7593H76.708C76.538 23.7572 76.3757 23.6879 76.2557 23.5661C76.1357 23.4443 76.0673 23.2798 76.065 23.1076V22.3594C75.6983 22.8371 75.2343 23.2291 74.705 23.5087C74.1203 23.8351 73.3437 23.9983 72.376 23.9983C71.663 24.0044 70.9557 23.869 70.294 23.5995C69.661 23.3402 69.089 22.9486 68.6153 22.4502C68.1237 21.9267 67.736 21.3121 67.473 20.64C67.1743 19.8781 67.0037 19.0708 66.9687 18.2517C66.9527 18.0103 66.9447 17.7487 66.9447 17.4667C66.9447 17.1848 66.9527 16.9235 66.9687 16.6829C67.002 15.8637 67.1713 15.056 67.4683 14.2934C67.732 13.6271 68.1217 13.0195 68.6153 12.5051C69.092 12.014 69.6637 11.6278 70.294 11.3707C70.9553 11.0997 71.6627 10.9626 72.376 10.9673ZM76.065 18.5218C76.081 18.2804 76.089 17.9625 76.089 17.5679C76.089 17.1732 76.081 16.8557 76.065 16.6151C76.0177 15.4726 75.6803 14.5915 75.0543 13.9716C74.4277 13.3518 73.6143 13.0422 72.614 13.043C71.5703 13.043 70.7463 13.3809 70.142 14.0567C69.5377 14.7325 69.2043 15.6496 69.1423 16.8082C69.1267 17.2587 69.1267 17.7092 69.1423 18.1598C69.206 19.3183 69.539 20.2354 70.142 20.9112C70.745 21.5871 71.569 21.9265 72.614 21.9296C73.5963 21.9296 74.4053 21.6231 75.0417 21.0101C75.678 20.3971 76.019 19.5677 76.065 18.5218Z" fill="white"/>
<path d="M80.0397 16.2771C80.099 15.5599 80.278 14.858 80.569 14.2014C80.842 13.5766 81.2207 13.0049 81.6877 12.5119C82.1563 12.0231 82.7193 11.637 83.3413 11.3776C84.0246 11.0962 84.757 10.9566 85.4946 10.9672C86.28 10.9537 87.06 11.097 87.791 11.3891C88.4476 11.6599 89.036 12.0766 89.5123 12.6085C90.005 13.1685 90.378 13.8259 90.6073 14.5394C90.87 15.3553 90.9986 16.2096 90.9883 17.0679V17.7196C90.9863 17.8917 90.9176 18.0563 90.7976 18.178C90.6776 18.2998 90.5153 18.3691 90.3456 18.3712H82.1556V18.516C82.1876 19.6102 82.5163 20.4507 83.143 21.0376C83.7693 21.6246 84.5516 21.9219 85.49 21.9295C86.363 21.9295 87.0173 21.8046 87.4533 21.5548C87.849 21.338 88.2066 21.0569 88.513 20.7228C88.6096 20.6174 88.7223 20.5279 88.846 20.4573C88.982 20.4014 89.128 20.3766 89.2746 20.3848H89.9886C90.1656 20.3858 90.3356 20.4548 90.4643 20.5779C90.5313 20.6316 90.582 20.703 90.6116 20.784C90.641 20.8651 90.6476 20.9529 90.631 21.0376C90.5616 21.3799 90.424 21.7041 90.2266 21.9905C89.969 22.372 89.6416 22.6998 89.262 22.9559C88.7783 23.284 88.249 23.5363 87.691 23.7041C86.9766 23.9152 86.234 24.0144 85.49 23.9983C84.7546 24.0098 84.0253 23.8657 83.348 23.5754C82.7267 23.3033 82.1643 22.9096 81.6933 22.4169C81.215 21.912 80.8306 21.3232 80.56 20.6791C80.268 19.9854 80.091 19.2475 80.0363 18.4953C79.958 17.758 79.9593 17.0142 80.0397 16.2771ZM82.158 16.3495H88.845V16.2771C88.845 15.2956 88.5393 14.511 87.928 13.9233C87.3166 13.3356 86.5036 13.0422 85.489 13.0429C85.0503 13.0392 84.6146 13.1172 84.2036 13.2728C83.8166 13.4197 83.461 13.641 83.1566 13.9245C82.8506 14.2125 82.6073 14.562 82.4423 14.9508C82.264 15.3702 82.1666 15.8205 82.1556 16.2771L82.158 16.3495Z" fill="white"/>
<path d="M98.9616 11.2086C99.1323 11.2092 99.296 11.2778 99.4173 11.3997C99.5386 11.5217 99.6076 11.6871 99.61 11.8602V12.6326C99.608 12.8048 99.5396 12.9693 99.4193 13.0911C99.2993 13.2129 99.137 13.2822 98.9673 13.2843H97.5813C95.76 13.2843 94.85 14.2095 94.85 16.0599V23.1076C94.8476 23.2797 94.7793 23.4443 94.6593 23.566C94.5393 23.6878 94.377 23.7571 94.207 23.7592H93.3266C93.1566 23.7571 92.9943 23.6878 92.8743 23.566C92.7543 23.4443 92.686 23.2797 92.6836 23.1076V11.8602C92.686 11.6881 92.7543 11.5235 92.8743 11.4018C92.9943 11.28 93.1566 11.2107 93.3266 11.2086H94.207C94.377 11.2107 94.5393 11.28 94.6593 11.4018C94.7793 11.5235 94.8476 11.6881 94.85 11.8602V12.6085C95.1286 12.1595 95.5196 11.7931 95.983 11.5465C96.4266 11.3212 97.0056 11.2086 97.7206 11.2086H98.9616Z" fill="white"/>
<path fill-rule="evenodd" clip-rule="evenodd" d="M36.8464 4H29V23.773H37.1763L37.3247 23.7719L37.4721 23.7673L37.6183 23.7615L37.7633 23.7535L37.9073 23.742L38.0489 23.7282L38.1895 23.7133L38.33 23.6949L38.4672 23.6742L38.6043 23.6512L38.7392 23.6259L38.8729 23.5983L39.0055 23.5673L39.1359 23.5351L39.2651 23.5006L39.392 23.4627L39.5178 23.4236L39.6425 23.3811L39.7649 23.3363L39.885 23.2903L40.004 23.2409L40.1219 23.1892L40.2375 23.1363L40.3509 23.08L40.4631 23.0214L40.5719 22.9605L40.6807 22.8972L40.7861 22.8329L40.8904 22.7651L40.9924 22.695L41.0932 22.6226L41.1907 22.5478L41.287 22.472L41.3811 22.3927L41.4729 22.3111L41.5625 22.2272L41.6509 22.1421L41.7358 22.0536L41.8186 21.964L41.9002 21.8709L41.9784 21.7766L42.0555 21.679L42.1291 21.5801L42.2005 21.479L42.2708 21.3744L42.3377 21.2687L42.4023 21.1606L42.4635 21.0503L42.5236 20.9388L42.5814 20.8239L42.6358 20.7066L42.6879 20.5871L42.7366 20.4664L42.7831 20.3434L42.8273 20.2182L42.8693 20.0906L42.9089 19.9607L42.944 19.8285L42.978 19.6941L43.0087 19.5584L43.0359 19.4194L43.0619 19.2792L43.0834 19.1367L43.1027 18.9918L43.1197 18.8447L43.1333 18.6965L43.1435 18.5447L43.1514 18.3919L43.156 18.2367L43.1571 18.0793L43.1537 17.885L43.1458 17.6942L43.1322 17.5092L43.114 17.3288L43.0902 17.154L43.0608 16.984L43.0279 16.8185L42.9905 16.6575L42.9486 16.5024L42.9033 16.3507L42.8534 16.2036L42.799 16.0611L42.7423 15.9231L42.6811 15.7898L42.6176 15.6611L42.5508 15.5358L42.4805 15.4151L42.408 15.2979L42.3331 15.1853L42.2549 15.0772L42.1756 14.9726L42.0929 14.8715L42.0101 14.7738L41.924 14.6807L41.8379 14.5911L41.7495 14.5049L41.6599 14.4221L41.5692 14.3428L41.4774 14.2669L41.3856 14.1934L41.2938 14.1244L41.2009 14.0589L41.108 13.9957L41.015 13.9359L40.8303 13.8244L40.6478 13.7245L40.4687 13.636L40.5515 13.5946L40.7237 13.4992L40.9006 13.3854L41.0807 13.2555L41.1714 13.1831L41.2621 13.1084L41.3528 13.028L41.4434 12.9441L41.533 12.8556L41.6225 12.7636L41.7098 12.6671L41.7971 12.5659L41.8821 12.4625L41.9648 12.3533L42.0453 12.2407L42.1246 12.1246L42.2005 12.0039L42.2742 11.8798L42.3456 11.7511L42.4125 11.6189L42.476 11.4833L42.536 11.3431L42.5927 11.1982L42.6437 11.0511L42.6913 10.8994L42.7344 10.7442L42.7729 10.5856L42.8046 10.4224L42.8318 10.2569L42.8534 10.0857L42.8693 9.91213L42.8794 9.73513L42.8828 9.5547L42.8806 9.40987L42.8772 9.2662L42.8704 9.12487L42.8613 8.98577L42.8488 8.8467L42.8341 8.70993L42.8171 8.57547L42.7967 8.44217L42.774 8.30997L42.748 8.1801L42.7208 8.0514L42.6902 7.9238L42.6562 7.79853L42.621 7.67553L42.5825 7.5537L42.5417 7.4342L42.4986 7.31581L42.4522 7.19857L42.4046 7.08481L42.3524 6.97102L42.2991 6.86067L42.2436 6.7515L42.1847 6.64346L42.1246 6.53885L42.0611 6.43428L41.9954 6.33313L41.9274 6.23314L41.856 6.13545L41.7835 6.04006L41.7075 5.94581L41.6293 5.85386L41.55 5.76422L41.4672 5.67572L41.3822 5.59067L41.295 5.50677L41.2054 5.42517L41.1136 5.34586L41.0184 5.26771L40.9221 5.193L40.8235 5.11944L40.7226 5.04819L40.6183 4.97923L40.5129 4.91257L40.4053 4.8482L40.2953 4.78614L40.1831 4.72638L40.0675 4.66776L39.9508 4.61259L39.8318 4.55972L39.7105 4.508L39.5881 4.45973L39.4623 4.41376L39.3342 4.37008L39.205 4.32871L39.0724 4.28963L38.9387 4.25285L38.8027 4.21837L38.6644 4.18619L38.5238 4.15631L38.3822 4.12987L38.2371 4.10574L38.0909 4.0839L37.9424 4.06436L37.7917 4.04712L37.6387 4.03333L37.4845 4.02069L37.3281 4.01149L37.1694 4.00575L37.0096 4.00115L36.8464 4Z" fill="white"/>
<path d="M105.884 23.4098C105.228 23.0921 104.709 22.6609 104.313 22.1163C103.929 21.5716 103.737 20.9588 103.737 20.2894C103.737 19.2454 104.166 18.383 105.014 17.7135C105.861 17.0441 107.036 16.6015 108.505 16.3746L112.063 15.8753V15.1831C112.063 13.5491 111.126 12.7321 109.239 12.7321C108.516 12.7321 107.928 12.8796 107.488 13.1747C107.047 13.4697 106.72 13.8101 106.516 14.2073C106.448 14.3661 106.381 14.4682 106.313 14.525C106.245 14.5817 106.143 14.6044 106.019 14.6044H105.093C104.946 14.6044 104.833 14.5477 104.72 14.4456C104.618 14.3434 104.562 14.2186 104.562 14.0711C104.562 13.708 104.731 13.2768 105.07 12.8002C105.409 12.3123 105.94 11.8924 106.652 11.5407C107.364 11.1889 108.233 11.0074 109.261 11.0074C111.035 11.0074 112.301 11.4159 113.069 12.2442C113.837 13.0725 114.221 14.1051 114.221 15.342V23.0808C114.221 23.2396 114.165 23.3758 114.063 23.4779C113.961 23.58 113.826 23.6368 113.668 23.6368H112.628C112.47 23.6368 112.346 23.58 112.244 23.4779C112.154 23.3758 112.097 23.2396 112.097 23.0808V22.0368C111.747 22.5588 111.239 23.0013 110.583 23.3417C109.928 23.6821 109.069 23.8637 108.019 23.8637C107.262 23.8864 106.539 23.7275 105.884 23.4098ZM111.069 21.1177C111.736 20.4369 112.063 19.4383 112.063 18.1447V17.4753L109.284 17.8838C108.143 18.0426 107.284 18.3149 106.697 18.6894C106.109 19.0752 105.816 19.5518 105.816 20.1192C105.816 20.7659 106.076 21.2766 106.607 21.617C107.138 21.9687 107.77 22.139 108.493 22.139C109.555 22.139 110.403 21.7985 111.069 21.1177Z" fill="white"/>
<path d="M116.469 8.76061C116.368 8.65848 116.311 8.52231 116.311 8.36348V7.12662C116.311 6.96776 116.368 6.83159 116.469 6.71812C116.571 6.60465 116.707 6.54791 116.865 6.54791H118.254C118.413 6.54791 118.548 6.60465 118.661 6.71812C118.774 6.83159 118.831 6.96776 118.831 7.12662V8.37481C118.831 8.53368 118.774 8.66984 118.661 8.77198C118.548 8.87408 118.413 8.93081 118.254 8.93081H116.853C116.695 8.91948 116.571 8.86274 116.469 8.76061ZM116.65 23.4893C116.548 23.3871 116.492 23.251 116.492 23.0921V11.8017C116.492 11.6428 116.548 11.5066 116.65 11.4045C116.752 11.3024 116.887 11.2456 117.046 11.2456H118.085C118.243 11.2456 118.379 11.3024 118.48 11.4045C118.582 11.5066 118.638 11.6428 118.638 11.8017V23.0921C118.638 23.251 118.582 23.3871 118.48 23.4893C118.379 23.5914 118.243 23.6481 118.085 23.6481H117.046C116.887 23.6481 116.763 23.5914 116.65 23.4893Z" fill="white"/>
<path d="M99.8393 23.4892C99.7376 23.3871 99.6813 23.251 99.6813 23.0921V21.4467C99.6813 21.2879 99.7376 21.1517 99.8393 21.0382C99.941 20.9248 100.077 20.868 100.235 20.868H101.873C102.031 20.868 102.167 20.9248 102.268 21.0382C102.37 21.1517 102.427 21.2879 102.427 21.4467V23.0921C102.427 23.251 102.37 23.3871 102.268 23.4892C102.167 23.5914 102.031 23.6481 101.873 23.6481H100.235C100.065 23.6481 99.941 23.5914 99.8393 23.4892Z" fill="white"/>
<path d="M126.083 6.5C126.083 7.74263 125.076 8.75 123.833 8.75C122.591 8.75 121.583 7.74263 121.583 6.5C121.583 5.25736 122.591 4.25 123.833 4.25C125.076 4.25 126.083 5.25736 126.083 6.5Z" stroke="white" stroke-width="0.5"/>
<path d="M123.698 6.2997C123.836 6.2997 123.936 6.2722 123.996 6.2197C124.056 6.16971 124.088 6.08471 124.088 5.96472C124.088 5.84722 124.056 5.76472 123.996 5.71223C123.936 5.66223 123.836 5.63723 123.698 5.63723H123.418V6.2997H123.698ZM123.418 6.75718V7.73212H122.753V5.15475H123.768C124.108 5.15475 124.356 5.21225 124.513 5.32725C124.673 5.43974 124.751 5.61973 124.751 5.86722C124.751 6.03721 124.711 6.1772 124.628 6.2872C124.546 6.39469 124.423 6.47719 124.256 6.52719C124.348 6.54969 124.428 6.59718 124.501 6.66968C124.573 6.74218 124.646 6.85217 124.718 7.00216L125.081 7.73212H124.373L124.058 7.09216C123.996 6.96467 123.931 6.87467 123.866 6.82967C123.801 6.78218 123.713 6.75718 123.606 6.75718H123.418Z" fill="white"/>
</g>
<defs>
<clipPath id="clip0_1_2">
<rect width="97.3333" height="22" fill="white" transform="translate(29 3)"/>
</clipPath>
</defs>
</svg>
