<svg viewBox="0 0 287 465" fill="none" xmlns="http://www.w3.org/2000/svg" class="css-1wxtk0p"><rect x="2" y="2" width="283" height="461.636" rx="13.592" fill="#22262F" fill-opacity="0.9"/><g opacity="0.72" fill="#E3E5E8" fill-opacity="0.52"><path d="M26.939 26.8h-1.204a1.841 1.841 0 0 0-.721-1.177 1.994 1.994 0 0 0-.613-.309 2.397 2.397 0 0 0-.714-.104 2.23 2.23 0 0 0-1.223.344c-.358.229-.64.564-.849 1.007-.206.442-.309.982-.309 1.62 0 .643.103 1.185.31 1.628.207.442.492.776.852 1.003.36.226.765.34 1.215.34.25 0 .486-.034.71-.1.226-.07.43-.172.613-.306a1.867 1.867 0 0 0 .73-1.16l1.203.003a3.222 3.222 0 0 1-.374 1.072 2.958 2.958 0 0 1-.706.841 3.19 3.19 0 0 1-.98.544 3.624 3.624 0 0 1-1.204.193c-.684 0-1.294-.162-1.829-.486-.534-.326-.956-.793-1.265-1.4-.306-.607-.459-1.331-.459-2.172 0-.844.154-1.568.463-2.172.309-.607.73-1.073 1.265-1.397.535-.326 1.144-.49 1.825-.49.42 0 .81.06 1.173.182.365.118.693.293.984.524.29.23.53.51.721.841.19.33.32.706.386 1.13ZM29.209 28.613v3.518h-1.154v-7.9h1.139v2.939h.073c.139-.319.351-.572.637-.76.285-.188.658-.282 1.118-.282.407 0 .762.084 1.065.251.306.167.543.417.71.749.17.329.255.74.255 1.234v3.77h-1.154V28.5c0-.435-.112-.772-.336-1.01-.223-.242-.535-.363-.933-.363-.273 0-.517.058-.733.173a1.252 1.252 0 0 0-.506.51c-.12.22-.181.488-.181.802ZM36.87 32.25c-.556 0-1.04-.126-1.455-.381a2.575 2.575 0 0 1-.964-1.069c-.23-.457-.344-.992-.344-1.605 0-.614.115-1.152.344-1.612.229-.46.55-.818.964-1.073.414-.254.899-.382 1.455-.382.555 0 1.04.128 1.454.382.414.255.736.612.964 1.073.23.46.344.998.344 1.612 0 .613-.115 1.148-.344 1.605-.228.458-.55.814-.964 1.069-.414.255-.899.382-1.454.382Zm.003-.968c.36 0 .659-.095.895-.285.237-.19.412-.444.525-.76.116-.316.174-.665.174-1.045 0-.378-.058-.726-.174-1.042a1.697 1.697 0 0 0-.525-.768c-.236-.193-.535-.29-.895-.29-.362 0-.663.097-.902.29a1.724 1.724 0 0 0-.529.768c-.113.316-.17.664-.17 1.042 0 .38.057.729.17 1.045a1.7 1.7 0 0 0 .529.76c.239.19.54.285.902.285ZM43.198 32.25c-.555 0-1.04-.126-1.454-.381a2.575 2.575 0 0 1-.965-1.069c-.229-.457-.343-.992-.343-1.605 0-.614.114-1.152.343-1.612.23-.46.55-.818.965-1.073.414-.254.899-.382 1.454-.382.556 0 1.04.128 1.455.382.414.255.735.612.964 1.073.229.46.343.998.343 1.612 0 .613-.114 1.148-.343 1.605-.229.458-.55.814-.964 1.069-.414.255-.9.382-1.455.382Zm.004-.968c.36 0 .658-.095.895-.285.237-.19.411-.444.525-.76.115-.316.173-.665.173-1.045 0-.378-.058-.726-.173-1.042a1.697 1.697 0 0 0-.525-.768c-.237-.193-.535-.29-.895-.29-.363 0-.664.097-.903.29a1.724 1.724 0 0 0-.528.768c-.114.316-.17.664-.17 1.042 0 .38.056.729.17 1.045a1.7 1.7 0 0 0 .528.76c.24.19.54.285.903.285ZM51.471 27.652l-1.045.185a1.239 1.239 0 0 0-.209-.381 1.03 1.03 0 0 0-.378-.297 1.369 1.369 0 0 0-.598-.116c-.326 0-.599.073-.818.22-.218.144-.328.33-.328.559a.59.59 0 0 0 .22.478c.147.121.384.22.71.297l.942.216c.545.127.951.32 1.219.583.267.262.4.603.4 1.022 0 .355-.102.672-.308.95a2.022 2.022 0 0 1-.852.648c-.363.156-.784.235-1.262.235-.663 0-1.205-.142-1.624-.424-.42-.286-.676-.691-.772-1.216l1.115-.17c.07.291.212.511.428.66.217.147.498.22.845.22.378 0 .68-.078.907-.235.226-.16.34-.354.34-.583 0-.185-.07-.34-.209-.467-.136-.126-.346-.22-.629-.285l-1.003-.22c-.553-.126-.962-.327-1.227-.602-.262-.275-.393-.623-.393-1.045 0-.35.098-.656.293-.918a1.92 1.92 0 0 1 .81-.614c.345-.149.74-.224 1.185-.224.64 0 1.144.14 1.512.417.368.275.61.644.73 1.107ZM55.192 32.25c-.584 0-1.087-.124-1.509-.373a2.538 2.538 0 0 1-.972-1.061c-.226-.458-.34-.994-.34-1.609 0-.607.114-1.142.34-1.605.229-.463.548-.824.957-1.084.411-.26.892-.39 1.443-.39.334 0 .658.056.972.166.314.11.595.284.845.521.25.237.446.544.59.922.144.376.216.832.216 1.37v.409h-4.71v-.864h3.58c0-.304-.062-.573-.185-.807a1.4 1.4 0 0 0-.521-.56 1.455 1.455 0 0 0-.78-.204c-.324 0-.607.08-.848.24-.24.156-.425.362-.556.617a1.781 1.781 0 0 0-.193.822v.675c0 .396.07.733.209 1.01.141.278.338.49.59.637.252.144.546.216.883.216.219 0 .418-.03.598-.093a1.241 1.241 0 0 0 .768-.752l1.092.197a1.978 1.978 0 0 1-.47.845 2.28 2.28 0 0 1-.846.56 3.161 3.161 0 0 1-1.153.196ZM63.179 32.262a2.42 2.42 0 0 1-1.019-.208 1.716 1.716 0 0 1-.721-.613c-.175-.268-.262-.596-.262-.984 0-.334.064-.61.193-.826.128-.216.302-.387.52-.513.219-.126.463-.22.733-.285.27-.064.546-.113.826-.147l.864-.1c.221-.028.382-.073.482-.135.1-.062.15-.162.15-.301v-.027c0-.337-.094-.598-.285-.783-.187-.185-.468-.278-.84-.278-.389 0-.695.086-.919.258-.221.17-.374.36-.459.568l-1.084-.247c.129-.36.316-.651.563-.872.25-.224.537-.386.86-.486a3.357 3.357 0 0 1 1.023-.155c.236 0 .487.029.752.085.268.054.517.155.749.301.234.147.425.356.574.629.15.27.224.621.224 1.053v3.935h-1.126v-.81h-.047c-.074.15-.186.296-.335.44-.15.144-.341.264-.575.359a2.229 2.229 0 0 1-.841.142Zm.25-.925c.32 0 .592-.064.819-.19.228-.125.402-.29.52-.493.121-.206.182-.426.182-.66v-.764a.6.6 0 0 1-.24.116 3.722 3.722 0 0 1-.397.089c-.149.023-.294.045-.436.065l-.355.047a2.863 2.863 0 0 0-.613.142c-.183.067-.33.163-.44.29-.108.123-.162.288-.162.493 0 .286.105.502.316.648.211.145.48.216.807.216ZM67.422 32.131v-5.925h1.108v.964h.073c.123-.327.325-.581.606-.764.28-.185.615-.278 1.006-.278.397 0 .728.093.996.278.27.185.47.44.598.764h.061c.142-.316.367-.568.676-.756.308-.19.676-.286 1.103-.286.537 0 .976.169 1.316.506.341.337.513.845.513 1.524v3.973h-1.154v-3.865c0-.401-.11-.692-.328-.872-.218-.18-.48-.27-.783-.27-.375 0-.667.116-.876.347-.208.229-.312.523-.312.883v3.777h-1.15v-3.939c0-.321-.1-.58-.3-.775-.201-.196-.463-.293-.784-.293-.219 0-.42.058-.606.173-.182.113-.33.272-.443.475-.11.203-.166.438-.166.706v3.653h-1.154ZM79.302 32.25c-.555 0-1.04-.126-1.454-.381a2.575 2.575 0 0 1-.965-1.069c-.228-.457-.343-.992-.343-1.605 0-.614.115-1.152.343-1.612.23-.46.55-.818.965-1.073.414-.254.899-.382 1.454-.382.556 0 1.04.128 1.455.382.414.255.735.612.964 1.073.23.46.344.998.344 1.612 0 .613-.115 1.148-.344 1.605-.229.458-.55.814-.964 1.069-.414.255-.9.382-1.455.382Zm.004-.968c.36 0 .659-.095.895-.285.237-.19.412-.444.525-.76.116-.316.174-.665.174-1.045a3.01 3.01 0 0 0-.174-1.042 1.697 1.697 0 0 0-.525-.768c-.236-.193-.535-.29-.895-.29-.362 0-.663.097-.903.29a1.724 1.724 0 0 0-.528.768c-.113.316-.17.664-.17 1.042 0 .38.057.729.17 1.045a1.7 1.7 0 0 0 .528.76c.24.19.54.285.903.285ZM86.889 29.674v-3.468h1.157v5.925h-1.134v-1.026h-.062a1.85 1.85 0 0 1-.656.79c-.298.21-.67.313-1.115.313-.38 0-.717-.083-1.01-.25-.291-.17-.52-.42-.687-.753-.165-.331-.247-.742-.247-1.23v-3.77h1.153v3.63c0 .405.112.726.336.965.224.24.514.36.872.36.216 0 .43-.055.644-.163.216-.108.395-.271.536-.49.144-.219.215-.496.213-.833ZM90.532 28.613v3.518H89.38v-5.925h1.107v.964h.073c.136-.314.35-.566.64-.756.294-.19.663-.286 1.108-.286.403 0 .757.085 1.06.255.304.167.54.417.707.748.167.332.25.742.25 1.231v3.77h-1.153V28.5c0-.43-.112-.765-.336-1.007-.223-.244-.53-.366-.922-.366-.267 0-.505.058-.713.173a1.249 1.249 0 0 0-.49.51 1.681 1.681 0 0 0-.178.802ZM98.42 26.206v.925h-3.237v-.925h3.237Zm-2.368-1.42h1.153v5.605c0 .224.034.393.1.506.067.11.153.186.259.227.108.039.225.058.35.058.093 0 .174-.006.244-.02l.162-.03.208.953a2.254 2.254 0 0 1-.749.123 2.03 2.03 0 0 1-.848-.162 1.456 1.456 0 0 1-.636-.524c-.163-.237-.243-.534-.243-.891v-5.845Z"/></g><path d="M25.449 69.222v-19.1h1.224v19.1h-1.224Zm3.529-12.99c-.07-.651-.363-1.158-.88-1.521-.513-.364-1.18-.545-2-.545-.577 0-1.072.087-1.485.261-.412.174-.728.41-.947.709-.219.298-.33.639-.336 1.022 0 .318.072.594.217.828.149.234.35.433.604.597.253.16.535.293.843.403.308.11.62.201.933.276l1.432.358a9.865 9.865 0 0 1 1.664.545 5.863 5.863 0 0 1 1.44.865 3.84 3.84 0 0 1 1.014 1.26c.249.493.373 1.07.373 1.732 0 .895-.228 1.684-.686 2.365-.458.676-1.12 1.206-1.985 1.589-.86.378-1.902.567-3.126.567-1.188 0-2.22-.184-3.096-.552-.87-.368-1.552-.905-2.044-1.612-.488-.706-.751-1.566-.79-2.581h2.722c.04.532.204.975.493 1.328.288.353.664.617 1.126.79.468.175.99.262 1.567.262.602 0 1.129-.09 1.582-.269.457-.184.815-.437 1.074-.76.259-.329.39-.712.395-1.15-.005-.398-.121-.726-.35-.984-.229-.264-.55-.483-.963-.657a9.272 9.272 0 0 0-1.432-.477l-1.738-.448c-1.259-.323-2.254-.813-2.985-1.47-.726-.661-1.089-1.54-1.089-2.633 0-.9.244-1.69.731-2.365.492-.677 1.162-1.202 2.007-1.575.846-.378 1.803-.567 2.872-.567 1.085 0 2.035.19 2.85.567.821.373 1.465.893 1.933 1.56.467.661.709 1.422.724 2.282h-2.664ZM39.18 67.52a6.454 6.454 0 0 1-2.14-.38 5.036 5.036 0 0 1-1.88-1.23c-.558-.573-1-1.331-1.329-2.276-.328-.95-.49-2.127-.485-3.53 0-1.307.14-2.474.418-3.498.279-1.025.68-1.89 1.201-2.597a5.301 5.301 0 0 1 1.888-1.626c.741-.373 1.57-.56 2.484-.56.96 0 1.81.19 2.552.567a4.806 4.806 0 0 1 1.805 1.552c.458.652.742 1.388.851 2.209h-2.723c-.14-.587-.425-1.055-.858-1.403-.428-.353-.97-.53-1.627-.53-1.059 0-1.875.46-2.447 1.38-.567.92-.853 2.184-.858 3.79h.105c.243-.437.56-.813.947-1.126a4.33 4.33 0 0 1 1.313-.724 4.643 4.643 0 0 1 1.56-.26c.895 0 1.698.213 2.41.64a4.65 4.65 0 0 1 1.7 1.769c.418.746.625 1.602.62 2.566.005 1.005-.224 1.908-.687 2.709a4.982 4.982 0 0 1-1.932 1.88c-.826.457-1.788.684-2.887.679Zm-.014-2.238c.542 0 1.027-.131 1.455-.395.427-.264.766-.62 1.014-1.067.249-.447.37-.95.366-1.507a2.968 2.968 0 0 0-.358-1.485 2.727 2.727 0 0 0-.992-1.052 2.717 2.717 0 0 0-1.448-.388 2.75 2.75 0 0 0-1.126.232 2.799 2.799 0 0 0-.91.641 3.007 3.007 0 0 0-.612.94 3.07 3.07 0 0 0-.224 1.134c.005.533.13 1.023.373 1.47.243.448.58.806 1.007 1.075.428.268.913.402 1.455.402ZM46.625 67.312v-2l5.304-5.2a25 25 0 0 0 1.269-1.365c.338-.398.592-.784.76-1.157.17-.373.255-.77.255-1.193 0-.483-.11-.896-.329-1.239a2.182 2.182 0 0 0-.903-.806 2.912 2.912 0 0 0-1.305-.283c-.503 0-.943.104-1.32.313a2.157 2.157 0 0 0-.881.873c-.204.378-.306.828-.306 1.35h-2.634c0-.97.222-1.812.664-2.529a4.482 4.482 0 0 1 1.828-1.663c.781-.393 1.676-.59 2.686-.59 1.025 0 1.925.192 2.701.575.776.383 1.378.907 1.805 1.574.433.666.65 1.427.65 2.283 0 .572-.11 1.134-.329 1.686-.219.552-.604 1.164-1.156 1.835-.547.672-1.316 1.485-2.306 2.44l-2.633 2.678V65H57.1v2.313H46.625ZM64.402 67.52c-.995 0-1.885-.186-2.67-.559-.787-.378-1.41-.895-1.873-1.552-.458-.656-.702-1.407-.732-2.253h2.686c.05.627.321 1.14.814 1.537.492.393 1.084.59 1.775.59a2.8 2.8 0 0 0 1.448-.374 2.674 2.674 0 0 0 1-1.037c.243-.442.363-.947.358-1.514.005-.577-.117-1.09-.366-1.537a2.735 2.735 0 0 0-1.022-1.052c-.433-.259-.93-.388-1.492-.388a3.553 3.553 0 0 0-1.35.254c-.443.174-.794.403-1.053.686l-2.5-.41.8-7.879h8.863v2.313h-6.573l-.44 4.051h.089c.283-.333.684-.61 1.201-.828a4.239 4.239 0 0 1 1.701-.336c.925 0 1.751.22 2.477.657a4.643 4.643 0 0 1 1.716 1.79c.418.761.627 1.632.627 2.612 0 1.01-.234 1.91-.701 2.7a4.962 4.962 0 0 1-1.933 1.858c-.82.448-1.77.672-2.85.672ZM74.49 65.223l-.098.82c-.07.627-.194 1.264-.373 1.91a23.75 23.75 0 0 1-.552 1.798c-.194.548-.35.978-.47 1.291h-1.82l.283-1.238c.125-.523.244-1.11.358-1.761.115-.652.192-1.313.232-1.985l.052-.835h2.387ZM81.954 67.603c-1.228 0-2.283-.311-3.163-.933-.876-.627-1.55-1.53-2.022-2.708-.468-1.184-.702-2.609-.702-4.275.006-1.666.242-3.084.71-4.253.472-1.174 1.146-2.069 2.021-2.686.88-.616 1.933-.925 3.156-.925 1.224 0 2.276.309 3.156.925.88.617 1.554 1.512 2.022 2.686.472 1.174.709 2.592.709 4.253 0 1.671-.237 3.099-.71 4.282-.467 1.18-1.14 2.08-2.021 2.701-.875.622-1.927.933-3.156.933Zm0-2.335c.955 0 1.709-.47 2.26-1.41.558-.946.836-2.336.836-4.171 0-1.214-.127-2.233-.38-3.059-.254-.826-.612-1.447-1.075-1.865a2.352 2.352 0 0 0-1.64-.634c-.95 0-1.702.472-2.254 1.417-.552.94-.83 2.32-.836 4.14-.005 1.22.117 2.244.366 3.075.254.83.612 1.457 1.074 1.88a2.377 2.377 0 0 0 1.65.626ZM95.384 67.603c-1.229 0-2.283-.311-3.164-.933-.875-.627-1.55-1.53-2.022-2.708-.467-1.184-.7-2.609-.7-4.275.004-1.666.24-3.084.708-4.253.472-1.174 1.146-2.069 2.022-2.686.88-.616 1.932-.925 3.156-.925 1.223 0 2.275.309 3.156.925.88.617 1.554 1.512 2.021 2.686.473 1.174.709 2.592.709 4.253 0 1.671-.236 3.099-.709 4.282-.467 1.18-1.141 2.08-2.022 2.701-.875.622-1.927.933-3.155.933Zm0-2.335c.955 0 1.708-.47 2.26-1.41.557-.946.836-2.336.836-4.171 0-1.214-.127-2.233-.38-3.059-.254-.826-.612-1.447-1.075-1.865a2.352 2.352 0 0 0-1.641-.634c-.95 0-1.701.472-2.254 1.417-.552.94-.83 2.32-.835 4.14-.005 1.22.117 2.244.365 3.075.254.83.612 1.457 1.075 1.88a2.377 2.377 0 0 0 1.649.626ZM108.813 67.603c-1.228 0-2.283-.311-3.163-.933-.876-.627-1.55-1.53-2.022-2.708-.468-1.184-.701-2.609-.701-4.275.005-1.666.241-3.084.708-4.253.473-1.174 1.147-2.069 2.022-2.686.881-.616 1.933-.925 3.156-.925 1.224 0 2.276.309 3.156.925.88.617 1.554 1.512 2.022 2.686.472 1.174.709 2.592.709 4.253 0 1.671-.237 3.099-.709 4.282-.468 1.18-1.142 2.08-2.022 2.701-.875.622-1.927.933-3.156.933Zm0-2.335c.955 0 1.709-.47 2.261-1.41.557-.946.835-2.336.835-4.171 0-1.214-.126-2.233-.38-3.059-.254-.826-.612-1.447-1.074-1.865a2.354 2.354 0 0 0-1.642-.634c-.95 0-1.701.472-2.253 1.417-.552.94-.831 2.32-.836 4.14-.005 1.22.117 2.244.366 3.075.254.83.612 1.457 1.074 1.88a2.38 2.38 0 0 0 1.649.626ZM117.694 67.476a1.6 1.6 0 0 1-1.164-.478 1.544 1.544 0 0 1-.478-1.163c-.005-.448.154-.831.478-1.15a1.6 1.6 0 0 1 1.164-.477c.437 0 .818.16 1.141.478a1.57 1.57 0 0 1 .261 1.977 1.71 1.71 0 0 1-.597.597 1.549 1.549 0 0 1-.805.216ZM126.563 67.603c-1.229 0-2.283-.311-3.164-.933-.875-.627-1.549-1.53-2.021-2.708-.468-1.184-.702-2.609-.702-4.275.005-1.666.241-3.084.709-4.253.472-1.174 1.146-2.069 2.022-2.686.88-.616 1.932-.925 3.156-.925 1.223 0 2.275.309 3.156.925.88.617 1.554 1.512 2.021 2.686.473 1.174.709 2.592.709 4.253 0 1.671-.236 3.099-.709 4.282-.467 1.18-1.141 2.08-2.021 2.701-.876.622-1.928.933-3.156.933Zm0-2.335c.955 0 1.708-.47 2.26-1.41.557-.946.836-2.336.836-4.171 0-1.214-.127-2.233-.381-3.059-.253-.826-.611-1.447-1.074-1.865a2.351 2.351 0 0 0-1.641-.634c-.95 0-1.701.472-2.253 1.417-.553.94-.831 2.32-.836 4.14-.005 1.22.117 2.244.366 3.075.253.83.611 1.457 1.074 1.88a2.376 2.376 0 0 0 1.649.626ZM139.992 67.603c-1.228 0-2.283-.311-3.163-.933-.875-.627-1.549-1.53-2.022-2.708-.467-1.184-.701-2.609-.701-4.275.005-1.666.241-3.084.709-4.253.472-1.174 1.146-2.069 2.021-2.686.881-.616 1.933-.925 3.156-.925 1.224 0 2.276.309 3.156.925.881.617 1.555 1.512 2.022 2.686.473 1.174.709 2.592.709 4.253 0 1.671-.236 3.099-.709 4.282-.467 1.18-1.141 2.08-2.022 2.701-.875.622-1.927.933-3.156.933Zm0-2.335c.955 0 1.709-.47 2.261-1.41.557-.946.836-2.336.836-4.171 0-1.214-.127-2.233-.381-3.059-.254-.826-.612-1.447-1.074-1.865a2.354 2.354 0 0 0-1.642-.634c-.95 0-1.701.472-2.253 1.417-.552.94-.83 2.32-.835 4.14-.005 1.22.116 2.244.365 3.075.254.83.612 1.457 1.074 1.88a2.38 2.38 0 0 0 1.649.626Z" fill="#fff"/><path d="m20.817 92.25 4.434-8.77v-.074h-5.129v-1.314h6.716v1.36l-4.42 8.798h-1.601ZM31.752 92.39c-.453-.007-.9-.09-1.34-.249a3.138 3.138 0 0 1-1.19-.793c-.357-.37-.643-.868-.858-1.493-.212-.625-.318-1.406-.318-2.342 0-.886.088-1.673.263-2.36.179-.688.435-1.269.769-1.742a3.405 3.405 0 0 1 1.21-1.086 3.376 3.376 0 0 1 1.593-.372c.605 0 1.142.12 1.611.357.47.238.85.567 1.141.987.295.42.481.898.56 1.434h-1.512a1.955 1.955 0 0 0-.61-1.037c-.304-.268-.701-.402-1.19-.402-.744 0-1.325.324-1.741.972-.414.649-.622 1.55-.625 2.704h.074c.175-.288.39-.533.645-.734a3.037 3.037 0 0 1 1.875-.64c.588 0 1.12.144 1.597.431.48.285.861.678 1.146 1.18.284.504.426 1.079.426 1.727 0 .648-.147 1.235-.441 1.76a3.237 3.237 0 0 1-1.23 1.25c-.53.305-1.148.454-1.855.447Zm-.005-1.29c.39 0 .739-.096 1.046-.288.308-.192.55-.45.73-.774.178-.324.267-.686.267-1.086 0-.39-.087-.746-.263-1.067a1.986 1.986 0 0 0-.714-.763 1.902 1.902 0 0 0-1.032-.283 1.981 1.981 0 0 0-1.473.635 2.272 2.272 0 0 0-.446.684 2.087 2.087 0 0 0-.159.809 2.157 2.157 0 0 0 .992 1.84c.31.195.661.293 1.052.293ZM40.378 92.39c-.711 0-1.34-.123-1.885-.368-.543-.245-.967-.582-1.275-1.012-.308-.43-.46-.919-.456-1.468a2.586 2.586 0 0 1 1.002-2.093c.31-.245.658-.4 1.041-.466v-.06a2.05 2.05 0 0 1-1.215-.813 2.379 2.379 0 0 1-.451-1.449c-.004-.519.134-.982.411-1.389.281-.41.667-.732 1.156-.967.49-.235 1.047-.352 1.672-.352.618 0 1.17.12 1.656.357.49.235.875.557 1.156.968.281.406.423.867.427 1.383a2.413 2.413 0 0 1-.467 1.449c-.307.42-.707.69-1.2.813v.06c.38.066.722.221 1.027.466.307.241.552.544.734.908.185.36.28.755.283 1.185a2.487 2.487 0 0 1-.467 1.468c-.307.43-.734.767-1.28 1.012-.542.245-1.165.367-1.87.367Zm0-1.256c.42 0 .783-.07 1.09-.208.308-.142.546-.339.715-.59.169-.255.255-.552.258-.893a1.672 1.672 0 0 0-.278-.938 1.855 1.855 0 0 0-.729-.64 2.311 2.311 0 0 0-1.056-.233c-.4 0-.756.078-1.067.234-.31.155-.555.368-.734.64a1.637 1.637 0 0 0-.263.937c-.003.34.078.638.243.893.169.251.409.448.72.59.31.139.677.208 1.1.208Zm0-4.727c.337 0 .636-.067.897-.203a1.54 1.54 0 0 0 .616-.566c.152-.24.23-.524.233-.848a1.571 1.571 0 0 0-.229-.833 1.45 1.45 0 0 0-.61-.55 1.984 1.984 0 0 0-.907-.199c-.35 0-.658.066-.923.198a1.45 1.45 0 0 0-.61.551 1.534 1.534 0 0 0-.213.833c-.004.324.07.607.218.848.149.242.354.43.615.566.264.136.569.203.913.203ZM57.764 85.395h-1.548a2.366 2.366 0 0 0-.927-1.512 2.566 2.566 0 0 0-.789-.397 3.078 3.078 0 0 0-.918-.134c-.585 0-1.109.147-1.572.441-.46.295-.823.726-1.091 1.295-.265.569-.397 1.263-.397 2.083 0 .827.132 1.525.397 2.093.268.57.633.999 1.096 1.29.463.291.984.436 1.562.436.321 0 .625-.042.913-.128.291-.09.554-.22.789-.392a2.375 2.375 0 0 0 .937-1.493l1.548.005c-.083.499-.243.959-.481 1.379a3.805 3.805 0 0 1-.908 1.08 4.104 4.104 0 0 1-1.26.7 4.658 4.658 0 0 1-1.547.248c-.88 0-1.664-.208-2.352-.625-.687-.42-1.23-1.02-1.627-1.8-.393-.78-.59-1.712-.59-2.793 0-1.084.199-2.015.595-2.792.397-.78.94-1.38 1.627-1.796.688-.42 1.47-.63 2.347-.63.538 0 1.041.078 1.507.233.47.152.892.377 1.265.675.374.294.683.655.928 1.081.245.423.41.908.496 1.454ZM62.548 92.404c-.714 0-1.337-.164-1.87-.49a3.311 3.311 0 0 1-1.24-1.375c-.294-.588-.441-1.276-.441-2.063 0-.79.147-1.482.441-2.074a3.305 3.305 0 0 1 1.24-1.379c.533-.327 1.156-.49 1.87-.49.715 0 1.338.163 1.87.49.533.328.946.788 1.24 1.38.295.591.442 1.282.442 2.073 0 .787-.147 1.475-.442 2.063a3.312 3.312 0 0 1-1.24 1.374c-.532.327-1.156.491-1.87.491Zm.005-1.245c.463 0 .847-.122 1.151-.367.304-.245.53-.57.675-.977.148-.407.223-.855.223-1.344a3.87 3.87 0 0 0-.223-1.34c-.146-.41-.37-.739-.675-.987-.304-.248-.688-.372-1.15-.372-.467 0-.854.124-1.161.372-.305.248-.531.578-.68.987a3.95 3.95 0 0 0-.218 1.34c0 .49.073.937.218 1.344.149.407.375.732.68.977.307.245.694.367 1.16.367ZM69.099 87.727v4.523h-1.484v-7.618h1.424v1.24h.094c.176-.404.45-.728.824-.973.377-.244.851-.367 1.423-.367.52 0 .974.11 1.364.328.39.215.693.535.908.962.215.427.322.954.322 1.582v4.846h-1.483v-4.667c0-.552-.144-.984-.431-1.295-.288-.314-.683-.47-1.186-.47-.344 0-.65.073-.917.222a1.605 1.605 0 0 0-.63.655c-.152.284-.228.628-.228 1.032ZM79.38 84.632v1.19H75.22v-1.19h4.161Zm-3.045-1.826h1.483v7.207c0 .288.043.505.129.65.086.142.196.24.332.293.139.05.29.074.451.074.12 0 .224-.008.313-.025.09-.016.159-.03.208-.04l.268 1.226a2.482 2.482 0 0 1-.367.099 2.91 2.91 0 0 1-.595.06 2.611 2.611 0 0 1-1.091-.209 1.872 1.872 0 0 1-.819-.674c-.208-.305-.312-.686-.312-1.146v-7.515ZM80.881 92.25v-7.618h1.433v1.21h.08c.139-.41.383-.733.734-.967a2.102 2.102 0 0 1 1.2-.358 6.354 6.354 0 0 1 .63.035v1.419a2.66 2.66 0 0 0-.317-.055 3.022 3.022 0 0 0-.457-.034c-.35 0-.662.074-.937.223a1.657 1.657 0 0 0-.883 1.493v4.652h-1.483ZM88.251 92.419c-.483 0-.92-.09-1.31-.268-.39-.182-.699-.445-.927-.788-.225-.344-.337-.766-.337-1.265 0-.43.082-.784.248-1.062a1.83 1.83 0 0 1 .67-.66 3.5 3.5 0 0 1 .942-.367 9.363 9.363 0 0 1 1.061-.188l1.111-.129c.285-.036.491-.094.62-.174.13-.079.194-.208.194-.386v-.035c0-.433-.123-.769-.367-1.007-.242-.238-.602-.357-1.082-.357-.499 0-.892.11-1.18.332-.285.218-.481.461-.59.73l-1.394-.318c.165-.463.407-.837.724-1.121.32-.288.69-.496 1.106-.625a4.317 4.317 0 0 1 1.315-.199c.304 0 .626.037.967.11.344.069.664.198.962.386.3.189.547.458.74.809.19.347.287.798.287 1.354v5.06h-1.449v-1.042h-.06c-.095.191-.239.38-.43.565a2.293 2.293 0 0 1-.74.462c-.3.122-.661.183-1.081.183Zm.322-1.19c.41 0 .76-.082 1.052-.243.294-.163.517-.374.67-.635.155-.265.233-.548.233-.849v-.982c-.053.053-.156.103-.308.15-.149.042-.319.08-.51.113l-.561.085-.457.06c-.287.035-.55.097-.788.183-.235.086-.423.21-.566.372-.139.158-.208.37-.208.635 0 .367.136.644.407.833.27.185.616.278 1.036.278ZM97.056 92.404c-.738 0-1.373-.167-1.905-.5a3.315 3.315 0 0 1-1.22-1.395c-.285-.592-.427-1.27-.427-2.033 0-.774.146-1.457.437-2.049a3.342 3.342 0 0 1 1.23-1.394c.529-.334 1.152-.5 1.87-.5.578 0 1.094.107 1.547.322.453.211.819.509 1.097.893.28.383.448.831.5 1.344h-1.443a1.73 1.73 0 0 0-.546-.923c-.28-.258-.658-.387-1.13-.387-.414 0-.776.11-1.087.328-.307.215-.547.522-.719.922-.172.397-.258.867-.258 1.409 0 .555.085 1.035.253 1.438.169.404.407.716.714.938.311.221.677.332 1.097.332.28 0 .535-.051.763-.154a1.56 1.56 0 0 0 .58-.45c.16-.196.27-.43.333-.705h1.443a2.794 2.794 0 0 1-.48 1.32 2.769 2.769 0 0 1-1.077.912c-.446.221-.97.332-1.572.332ZM105.188 84.632v1.19h-4.161v-1.19h4.161Zm-3.045-1.826h1.483v7.207c0 .288.043.505.129.65.086.142.196.24.332.293.139.05.289.074.451.074.119 0 .224-.008.313-.025.089-.016.159-.03.208-.04l.268 1.226a2.472 2.472 0 0 1-.367.099 2.91 2.91 0 0 1-.595.06 2.61 2.61 0 0 1-1.091-.209 1.873 1.873 0 0 1-.819-.674c-.208-.305-.312-.686-.312-1.146v-7.515ZM112.275 86.492l-1.344.238a1.575 1.575 0 0 0-.268-.491 1.325 1.325 0 0 0-.486-.382c-.205-.1-.461-.15-.769-.15-.419 0-.77.095-1.051.284-.281.185-.422.425-.422.719 0 .255.095.46.283.615.189.155.493.283.913.382l1.21.278c.701.162 1.223.411 1.567.749.344.337.516.775.516 1.314 0 .456-.132.863-.397 1.22-.261.354-.626.632-1.096.834-.466.201-1.007.302-1.622.302-.853 0-1.549-.182-2.088-.545-.539-.367-.87-.888-.992-1.563l1.434-.218c.089.373.272.656.55.848.278.189.64.283 1.086.283.486 0 .875-.101 1.166-.303.291-.205.436-.455.436-.749a.78.78 0 0 0-.267-.6c-.176-.162-.445-.284-.809-.367l-1.289-.283c-.711-.162-1.237-.42-1.578-.774-.337-.353-.506-.801-.506-1.344 0-.45.126-.843.377-1.18.252-.337.599-.6 1.042-.789.443-.192.951-.288 1.523-.288.823 0 1.471.179 1.944.536.473.354.785.828.937 1.424Z" fill="#E3E5E8" fill-opacity="0.72"/><rect x="20.122" y="113.567" width="246.755" height="12.416" rx="6.208" fill="#2B303B"/><path d="M26.33 116.67a.776.776 0 0 1 1.552 0v6.208a.776.776 0 1 1-1.552 0v-6.208ZM30.895 116.67a.776.776 0 0 1 1.552 0v6.208a.776.776 0 1 1-1.553 0v-6.208ZM35.459 116.67a.776.776 0 0 1 1.552 0v6.208a.776.776 0 1 1-1.552 0v-6.208ZM40.023 116.67a.776.776 0 0 1 1.552 0v6.208a.776.776 0 1 1-1.552 0v-6.208ZM44.588 116.67a.776.776 0 0 1 1.552 0v6.208a.776.776 0 1 1-1.552 0v-6.208ZM49.152 116.67a.776.776 0 0 1 1.552 0v6.208a.776.776 0 1 1-1.552 0v-6.208ZM53.717 116.67a.776.776 0 0 1 1.552 0v6.208a.776.776 0 1 1-1.552 0v-6.208ZM58.281 116.67a.776.776 0 0 1 1.552 0v6.208a.776.776 0 1 1-1.552 0v-6.208ZM62.846 116.67a.776.776 0 0 1 1.552 0v6.208a.776.776 0 1 1-1.552 0v-6.208ZM67.41 116.67a.776.776 0 0 1 1.552 0v6.208a.776.776 0 1 1-1.552 0v-6.208ZM71.975 116.67a.776.776 0 0 1 1.552 0v6.208a.776.776 0 1 1-1.552 0v-6.208ZM76.54 116.67a.776.776 0 0 1 1.551 0v6.208a.776.776 0 1 1-1.552 0v-6.208ZM81.103 116.67a.776.776 0 0 1 1.553 0v6.208a.776.776 0 1 1-1.553 0v-6.208ZM85.668 116.67a.776.776 0 0 1 1.552 0v6.208a.776.776 0 1 1-1.552 0v-6.208ZM90.232 116.67a.776.776 0 0 1 1.552 0v6.208a.776.776 0 1 1-1.552 0v-6.208ZM94.797 116.67a.776.776 0 0 1 1.552 0v6.208a.776.776 0 1 1-1.552 0v-6.208ZM99.361 116.67a.776.776 0 0 1 1.552 0v6.208a.775.775 0 1 1-1.552 0v-6.208ZM103.926 116.67a.776.776 0 0 1 1.552 0v6.208a.776.776 0 0 1-1.552 0v-6.208ZM108.49 116.67a.777.777 0 0 1 1.552 0v6.208a.775.775 0 1 1-1.552 0v-6.208Z" fill="#5E81EB"/><path d="M113.055 116.67a.776.776 0 0 1 1.552 0v6.208a.776.776 0 0 1-1.552 0v-6.208ZM117.619 116.67a.777.777 0 0 1 1.552 0v6.208a.775.775 0 1 1-1.552 0v-6.208ZM122.184 116.67a.776.776 0 0 1 1.552 0v6.208a.776.776 0 0 1-1.552 0v-6.208ZM126.748 116.67a.776.776 0 0 1 1.552 0v6.208a.775.775 0 1 1-1.552 0v-6.208ZM131.312 116.67a.777.777 0 0 1 1.552 0v6.208a.775.775 0 1 1-1.552 0v-6.208ZM135.877 116.67a.776.776 0 0 1 1.552 0v6.208a.775.775 0 1 1-1.552 0v-6.208ZM140.441 116.67a.777.777 0 0 1 1.552 0v6.208a.775.775 0 1 1-1.552 0v-6.208ZM145.006 116.67a.776.776 0 0 1 1.552 0v6.208a.776.776 0 0 1-1.552 0v-6.208ZM149.57 116.67a.777.777 0 0 1 1.552 0v6.208a.775.775 0 1 1-1.552 0v-6.208ZM154.135 116.67a.776.776 0 0 1 1.552 0v6.208a.776.776 0 0 1-1.552 0v-6.208Z" fill="#B2C6FF"/><path d="M158.699 116.67a.777.777 0 0 1 1.552 0v6.208a.775.775 0 1 1-1.552 0v-6.208ZM163.264 116.67a.776.776 0 0 1 1.552 0v6.208a.776.776 0 0 1-1.552 0v-6.208ZM167.828 116.67a.777.777 0 0 1 1.552 0v6.208a.775.775 0 1 1-1.552 0v-6.208ZM172.393 116.67a.776.776 0 0 1 1.552 0v6.208a.776.776 0 0 1-1.552 0v-6.208ZM176.957 116.67a.776.776 0 0 1 1.552 0v6.208a.775.775 0 1 1-1.552 0v-6.208ZM181.521 116.67a.777.777 0 0 1 1.552 0v6.208a.775.775 0 1 1-1.552 0v-6.208ZM186.086 116.67a.776.776 0 0 1 1.552 0v6.208a.776.776 0 0 1-1.552 0v-6.208ZM190.65 116.67a.777.777 0 0 1 1.552 0v6.208a.775.775 0 1 1-1.552 0v-6.208ZM195.215 116.67a.776.776 0 0 1 1.552 0v6.208a.776.776 0 0 1-1.552 0v-6.208ZM199.779 116.67a.777.777 0 0 1 1.552 0v6.208a.775.775 0 1 1-1.552 0v-6.208ZM204.344 116.67a.776.776 0 0 1 1.552 0v6.208a.776.776 0 0 1-1.552 0v-6.208ZM208.908 116.67a.777.777 0 0 1 1.552 0v6.208a.775.775 0 1 1-1.552 0v-6.208ZM213.473 116.67a.776.776 0 0 1 1.552 0v6.208a.776.776 0 0 1-1.552 0v-6.208ZM218.037 116.67a.777.777 0 0 1 1.552 0v6.208a.775.775 0 1 1-1.552 0v-6.208ZM222.602 116.67a.776.776 0 0 1 1.552 0v6.208a.776.776 0 0 1-1.552 0v-6.208ZM227.167 116.67a.776.776 0 0 1 1.552 0v6.208a.775.775 0 1 1-1.552 0v-6.208ZM231.731 116.67a.777.777 0 0 1 1.552 0v6.208a.775.775 0 1 1-1.552 0v-6.208ZM236.296 116.67a.776.776 0 0 1 1.552 0v6.208a.776.776 0 0 1-1.552 0v-6.208ZM240.86 116.67a.777.777 0 0 1 1.552 0v6.208a.775.775 0 1 1-1.552 0v-6.208ZM245.425 116.67a.776.776 0 0 1 1.552 0v6.208a.776.776 0 0 1-1.552 0v-6.208ZM249.989 116.67a.777.777 0 0 1 1.552 0v6.208a.775.775 0 1 1-1.552 0v-6.208ZM254.554 116.67a.776.776 0 0 1 1.552 0v6.208a.776.776 0 0 1-1.552 0v-6.208ZM259.118 116.67a.777.777 0 0 1 1.552 0v6.208a.775.775 0 1 1-1.552 0v-6.208Z" fill="#535965"/><g filter="url(#order-box_svg__a)"><path d="M149.396 115.547a5.54 5.54 0 1 1 11.081 0v8.081a5.54 5.54 0 1 1-11.081 0v-8.081Z" fill="#5D616C"/></g><g filter="url(#order-box_svg__b)"><path d="M152.003 115.758a2.933 2.933 0 1 1 5.867 0v7.66a2.935 2.935 0 0 1-5.867 0v-7.66Z" fill="#15181E"/></g><path d="M154.285 116.858a.652.652 0 0 1 1.304 0v5.46a.651.651 0 0 1-1.304 0v-5.46Z" fill="#fff"/><path fill-rule="evenodd" clip-rule="evenodd" d="M266.877 153.289H20.122v-.776h246.755v.776Z" fill="#3F4550"/><path d="M20.122 176.702v-7.901h2.816c.615 0 1.124.112 1.528.336.404.223.706.529.907.918.2.386.3.82.3 1.304 0 .486-.101.923-.304 1.311a2.21 2.21 0 0 1-.91.919c-.404.223-.912.335-1.524.335h-1.937v-1.01h1.828c.389 0 .704-.067.946-.201a1.26 1.26 0 0 0 .532-.556c.113-.234.17-.5.17-.798 0-.299-.057-.563-.17-.795a1.22 1.22 0 0 0-.536-.544c-.242-.131-.56-.197-.957-.197h-1.497v6.879h-1.192ZM28.433 176.833c-.376 0-.715-.069-1.019-.208a1.718 1.718 0 0 1-.721-.614c-.175-.267-.263-.595-.263-.983 0-.335.065-.61.193-.826.129-.216.302-.387.521-.513.219-.126.463-.221.733-.286.27-.064.545-.113.826-.146l.864-.1c.221-.029.382-.074.482-.135.1-.062.15-.162.15-.301v-.027c0-.337-.095-.598-.285-.784-.188-.185-.468-.277-.841-.277-.388 0-.694.086-.918.258-.221.17-.374.359-.46.567l-1.083-.247c.128-.36.316-.65.563-.871.25-.224.536-.386.86-.487a3.385 3.385 0 0 1 1.023-.154c.236 0 .487.028.752.085.267.054.517.154.748.301.234.146.426.356.575.629.15.27.224.621.224 1.053v3.935H30.23v-.81h-.046a1.646 1.646 0 0 1-.335.44 1.78 1.78 0 0 1-.575.358 2.214 2.214 0 0 1-.841.143Zm.25-.926c.32 0 .592-.063.818-.189.23-.126.403-.29.521-.494.121-.205.181-.425.181-.659v-.764a.603.603 0 0 1-.239.116 3.66 3.66 0 0 1-.397.088l-.436.066-.355.046a2.834 2.834 0 0 0-.613.143c-.183.067-.33.163-.44.289-.108.124-.162.288-.162.494 0 .286.105.502.316.648.211.144.48.216.806.216ZM33.193 178.924c-.172 0-.33-.014-.47-.042a1.488 1.488 0 0 1-.317-.085l.278-.945c.21.056.398.081.563.073a.68.68 0 0 0 .436-.185c.129-.116.242-.305.34-.567l.142-.394-2.168-6.003h1.235l1.5 4.599h.062l1.5-4.599h1.24l-2.443 6.717c-.113.308-.257.57-.432.783a1.677 1.677 0 0 1-.625.486 2.045 2.045 0 0 1-.841.162ZM38.492 176.702v-7.901h1.154v2.936h.07c.066-.124.163-.266.289-.428.126-.162.3-.304.524-.425.224-.123.52-.185.888-.185.478 0 .905.121 1.28.363.376.242.67.59.884 1.045.216.455.324 1.003.324 1.644 0 .64-.107 1.189-.32 1.647-.214.455-.507.806-.88 1.053a2.273 2.273 0 0 1-1.277.367c-.36 0-.654-.061-.883-.182a1.673 1.673 0 0 1-.532-.424 3.217 3.217 0 0 1-.298-.432h-.096v.922h-1.127Zm1.13-2.963c0 .417.061.782.182 1.096.121.314.296.559.525.737.229.174.51.262.84.262.346 0 .634-.091.865-.274a1.7 1.7 0 0 0 .525-.752 2.98 2.98 0 0 0 .181-1.069c0-.391-.06-.742-.178-1.053a1.614 1.614 0 0 0-.524-.737c-.232-.18-.521-.27-.868-.27-.334 0-.617.086-.849.258a1.59 1.59 0 0 0-.52.722 3.012 3.012 0 0 0-.178 1.08ZM46.708 176.833c-.376 0-.715-.069-1.019-.208a1.717 1.717 0 0 1-.721-.614c-.175-.267-.263-.595-.263-.983 0-.335.065-.61.193-.826.129-.216.302-.387.521-.513.219-.126.463-.221.733-.286a7.26 7.26 0 0 1 .826-.146l.864-.1c.221-.029.382-.074.482-.135.1-.062.15-.162.15-.301v-.027c0-.337-.095-.598-.285-.784-.188-.185-.468-.277-.841-.277-.388 0-.694.086-.918.258-.221.17-.374.359-.46.567l-1.083-.247c.128-.36.316-.65.563-.871.25-.224.536-.386.86-.487a3.386 3.386 0 0 1 1.775-.069c.267.054.517.154.748.301.234.146.426.356.575.629.15.27.224.621.224 1.053v3.935h-1.127v-.81h-.046a1.644 1.644 0 0 1-.336.44 1.78 1.78 0 0 1-.574.358 2.214 2.214 0 0 1-.841.143Zm.25-.926c.32 0 .592-.063.818-.189.23-.126.403-.29.521-.494.12-.205.181-.425.181-.659v-.764a.602.602 0 0 1-.239.116 3.663 3.663 0 0 1-.397.088l-.436.066-.355.046a2.834 2.834 0 0 0-.614.143c-.182.067-.329.163-.44.289-.107.124-.161.288-.161.494 0 .286.105.502.316.648.21.144.48.216.806.216ZM53.447 176.822c-.574 0-1.067-.13-1.481-.39a2.58 2.58 0 0 1-.95-1.084c-.22-.461-.331-.988-.331-1.582 0-.602.113-1.133.34-1.593.226-.463.544-.824.956-1.084.411-.26.896-.39 1.454-.39.45 0 .852.084 1.204.251.352.164.637.396.853.694a2.1 2.1 0 0 1 .39 1.046h-1.123a1.347 1.347 0 0 0-.425-.718c-.218-.2-.512-.301-.88-.301-.32 0-.602.085-.844.255-.24.167-.426.406-.56.717-.133.309-.2.674-.2 1.096 0 .432.065.805.197 1.119.13.314.316.557.555.729.242.172.526.259.853.259.218 0 .416-.04.594-.12.18-.082.33-.199.451-.351a1.32 1.32 0 0 0 .259-.548h1.122a2.181 2.181 0 0 1-.374 1.026 2.15 2.15 0 0 1-.837.71c-.347.172-.755.259-1.223.259ZM57.959 174.692l-.008-1.408h.2l2.361-2.508h1.382l-2.693 2.855h-.182l-1.06 1.061Zm-1.061 2.01v-7.901h1.153v7.901h-1.153Zm3.742 0-2.122-2.816.795-.807 2.743 3.623H60.64ZM65.385 178.924v-8.148h1.127v.961h.096a3.19 3.19 0 0 1 .29-.428c.126-.162.3-.304.524-.425.224-.123.52-.185.888-.185.478 0 .905.121 1.28.363.376.242.67.59.884 1.045.216.455.324 1.003.324 1.644 0 .64-.107 1.189-.32 1.647-.214.455-.507.806-.88 1.053a2.273 2.273 0 0 1-1.277.367c-.36 0-.654-.061-.883-.182a1.673 1.673 0 0 1-.533-.424 3.208 3.208 0 0 1-.297-.432h-.07v3.144h-1.153Zm1.13-5.185c0 .417.061.782.182 1.096.12.314.296.559.525.737.229.174.509.262.84.262.345 0 .633-.091.865-.274a1.7 1.7 0 0 0 .525-.752c.12-.317.18-.673.18-1.069 0-.391-.058-.742-.177-1.053a1.613 1.613 0 0 0-.524-.737c-.232-.18-.521-.27-.868-.27-.335 0-.618.086-.849.258a1.59 1.59 0 0 0-.52.722 3.012 3.012 0 0 0-.178 1.08ZM74.427 176.822c-.584 0-1.087-.125-1.508-.375a2.533 2.533 0 0 1-.973-1.061c-.226-.457-.34-.994-.34-1.608 0-.607.114-1.142.34-1.605.23-.463.548-.824.957-1.084.412-.26.893-.39 1.443-.39.334 0 .658.055.972.166.314.111.596.284.845.521.25.236.446.544.59.922.144.375.216.832.216 1.369v.409h-4.71v-.864h3.58c0-.303-.062-.572-.185-.806a1.404 1.404 0 0 0-.521-.56 1.458 1.458 0 0 0-.78-.204c-.323 0-.606.08-.848.239a1.61 1.61 0 0 0-.556.617 1.782 1.782 0 0 0-.192.822v.675c0 .396.069.733.208 1.011.141.278.338.49.59.637.252.144.547.216.884.216.218 0 .418-.031.598-.093a1.241 1.241 0 0 0 .768-.752l1.091.197a1.972 1.972 0 0 1-.47.844c-.224.24-.506.426-.846.56a3.165 3.165 0 0 1-1.153.197ZM78.032 176.702v-5.926h1.115v.942h.062c.108-.319.298-.57.57-.753.276-.185.587-.277.934-.277a5.01 5.01 0 0 1 .49.027v1.103a2.128 2.128 0 0 0-.247-.043 2.356 2.356 0 0 0-.355-.027c-.272 0-.515.058-.729.174-.21.113-.378.271-.501.475a1.28 1.28 0 0 0-.186.686v3.619h-1.153ZM81.984 176.702v-5.926h1.154v5.926h-1.154Zm.583-6.84a.733.733 0 0 1-.517-.201.651.651 0 0 1-.213-.486c0-.19.071-.352.213-.486a.727.727 0 0 1 .517-.204c.2 0 .371.068.513.204a.64.64 0 0 1 .216.486c0 .188-.072.35-.216.486a.72.72 0 0 1-.513.201ZM86.968 176.822c-.555 0-1.04-.128-1.454-.382a2.577 2.577 0 0 1-.965-1.069c-.229-.458-.343-.993-.343-1.605 0-.615.114-1.152.343-1.612a2.57 2.57 0 0 1 .965-1.073c.414-.255.899-.382 1.454-.382.556 0 1.04.127 1.455.382.414.255.735.612.964 1.073.229.46.343.997.343 1.612 0 .612-.114 1.147-.343 1.605-.229.458-.55.814-.964 1.069-.415.254-.9.382-1.455.382Zm.004-.969c.36 0 .658-.095.895-.285.237-.191.411-.444.525-.76.115-.317.173-.665.173-1.046 0-.378-.058-.725-.173-1.041a1.698 1.698 0 0 0-.525-.768c-.237-.193-.535-.289-.895-.289-.363 0-.664.096-.903.289a1.725 1.725 0 0 0-.528.768 3.07 3.07 0 0 0-.17 1.041c0 .381.057.729.17 1.046.115.316.292.569.528.76.24.19.54.285.903.285ZM93.019 176.818c-.478 0-.905-.122-1.28-.367-.374-.247-.667-.598-.88-1.053-.211-.458-.317-1.007-.317-1.647 0-.641.107-1.189.32-1.644.216-.455.512-.803.888-1.045a2.306 2.306 0 0 1 1.277-.363c.367 0 .663.062.887.185.226.121.401.263.525.425.126.162.223.304.293.428h.07v-2.936h1.153v7.901h-1.127v-.922h-.096c-.07.126-.17.27-.301.432a1.673 1.673 0 0 1-.532.424c-.227.121-.52.182-.88.182Zm.255-.984c.331 0 .612-.088.84-.262.232-.178.407-.423.525-.737.121-.314.182-.679.182-1.096 0-.411-.06-.771-.178-1.08a1.59 1.59 0 0 0-.52-.722c-.23-.172-.513-.258-.85-.258-.347 0-.636.09-.867.27-.232.18-.407.426-.525.737a3.002 3.002 0 0 0-.174 1.053c0 .396.06.752.178 1.069a1.7 1.7 0 0 0 .524.752c.234.183.522.274.865.274Z" fill="#E3E5E8" fill-opacity="0.72"/><path d="M219.024 169.748v7.901h-1.196v-6.705h-.046l-1.89 1.235v-1.142l1.971-1.289h1.161ZM220.944 177.649v-.864l2.674-2.77c.285-.301.521-.565.706-.791.187-.229.328-.446.42-.652.093-.206.139-.424.139-.656 0-.262-.062-.488-.185-.679a1.214 1.214 0 0 0-.505-.443 1.603 1.603 0 0 0-.722-.159c-.283 0-.53.058-.741.174a1.189 1.189 0 0 0-.486.49 1.547 1.547 0 0 0-.169.741h-1.139c0-.481.111-.902.332-1.262.221-.36.525-.639.911-.837a2.8 2.8 0 0 1 1.315-.301c.497 0 .934.099 1.312.297.381.196.678.463.891.803.214.337.32.717.32 1.142 0 .293-.055.58-.166.86-.108.28-.297.593-.567.937-.27.342-.645.758-1.126 1.246l-1.57 1.644v.058h3.557v1.022h-5.201ZM230.063 177.649v-5.926h1.107v.965h.073c.124-.327.326-.581.606-.764.28-.185.616-.278 1.007-.278.396 0 .728.093.995.278.27.185.47.44.598.764h.062a1.66 1.66 0 0 1 .675-.756c.309-.191.676-.286 1.103-.286.538 0 .976.169 1.316.506.342.337.513.844.513 1.523v3.974h-1.154v-3.866c0-.401-.109-.691-.327-.871-.219-.18-.48-.27-.784-.27-.375 0-.667.115-.875.347-.209.229-.313.523-.313.883v3.777h-1.149v-3.939c0-.321-.101-.58-.301-.775-.201-.196-.462-.293-.784-.293-.218 0-.42.057-.605.173a1.272 1.272 0 0 0-.444.475c-.11.203-.166.438-.166.706v3.653h-1.153ZM241.943 177.769c-.556 0-1.041-.128-1.455-.382a2.578 2.578 0 0 1-.964-1.069c-.229-.458-.343-.993-.343-1.605 0-.614.114-1.152.343-1.612a2.57 2.57 0 0 1 .964-1.073c.414-.254.899-.382 1.455-.382.555 0 1.04.128 1.454.382.414.255.736.612.965 1.073.229.46.343.998.343 1.612 0 .612-.114 1.147-.343 1.605a2.58 2.58 0 0 1-.965 1.069c-.414.254-.899.382-1.454.382Zm.004-.969c.36 0 .658-.095.895-.285.236-.19.411-.444.524-.76.116-.316.174-.665.174-1.046a3 3 0 0 0-.174-1.041 1.7 1.7 0 0 0-.524-.768c-.237-.193-.535-.289-.895-.289-.363 0-.664.096-.903.289a1.725 1.725 0 0 0-.529.768 3.072 3.072 0 0 0-.169 1.041c0 .381.056.73.169 1.046a1.7 1.7 0 0 0 .529.76c.239.19.54.285.903.285ZM246.929 174.131v3.518h-1.154v-5.926h1.108v.965h.073c.136-.314.35-.566.64-.756.293-.191.662-.286 1.107-.286.404 0 .758.085 1.061.255.304.167.539.417.706.748.168.332.251.742.251 1.231v3.769h-1.153v-3.63c0-.43-.112-.765-.336-1.007-.224-.244-.531-.367-.922-.367-.268 0-.505.058-.714.174a1.253 1.253 0 0 0-.49.509 1.686 1.686 0 0 0-.177.803ZM254.817 171.723v.926h-3.237v-.926h3.237Zm-2.369-1.419h1.154v5.605c0 .224.033.392.1.506.067.11.153.186.258.227.109.039.226.058.352.058.092 0 .173-.006.243-.019l.162-.031.208.953a1.938 1.938 0 0 1-.286.077 2.23 2.23 0 0 1-.462.046 2.034 2.034 0 0 1-.849-.162 1.455 1.455 0 0 1-.637-.524c-.162-.237-.243-.534-.243-.892v-5.844ZM257.156 174.131v3.518h-1.153v-7.901h1.138v2.94h.073c.139-.319.351-.572.637-.76.285-.188.658-.282 1.119-.282.406 0 .761.084 1.064.251.307.167.543.417.71.748.17.33.255.741.255 1.235v3.769h-1.154v-3.63c0-.435-.111-.772-.335-1.011-.224-.242-.535-.363-.934-.363-.272 0-.517.058-.733.174a1.257 1.257 0 0 0-.505.509 1.651 1.651 0 0 0-.182.803ZM266.761 173.17l-1.045.185a1.257 1.257 0 0 0-.208-.382 1.03 1.03 0 0 0-.379-.297 1.368 1.368 0 0 0-.598-.115c-.326 0-.599.073-.817.219-.219.144-.328.331-.328.56 0 .198.073.357.22.478.146.121.383.22.709.297l.942.216c.545.126.951.321 1.219.583.267.262.401.603.401 1.022 0 .355-.103.671-.309.949a2.022 2.022 0 0 1-.852.648c-.363.157-.783.236-1.262.236-.663 0-1.205-.142-1.624-.425-.419-.285-.676-.69-.771-1.215l1.115-.17c.069.291.212.511.428.66.216.147.497.22.845.22.378 0 .68-.079.906-.235.227-.16.34-.354.34-.583a.606.606 0 0 0-.209-.467c-.136-.126-.346-.221-.628-.285l-1.003-.22c-.553-.126-.962-.327-1.227-.602-.263-.275-.394-.624-.394-1.045 0-.35.098-.656.293-.919.196-.262.466-.466.811-.613a2.956 2.956 0 0 1 1.184-.224c.64 0 1.144.139 1.512.417.368.275.611.644.729 1.107Z" fill="#fff"/><path fill-rule="evenodd" clip-rule="evenodd" d="M266.877 194.896H20.122v-.776h246.755v.776Z" fill="#3F4550"/><path d="M20.122 218.31v-7.901h2.893c.561 0 1.025.092 1.393.277.368.183.643.431.826.745.182.311.274.662.274 1.053 0 .329-.06.607-.182.833a1.5 1.5 0 0 1-.486.541c-.2.133-.421.231-.663.293v.077c.262.013.518.098.767.254.253.155.46.375.625.66.165.286.247.633.247 1.042 0 .404-.095.766-.285 1.088-.188.319-.479.572-.872.76-.394.185-.896.278-1.508.278h-3.029Zm1.192-1.023h1.72c.572 0 .98-.11 1.228-.332.247-.221.37-.497.37-.829 0-.25-.063-.478-.19-.687a1.348 1.348 0 0 0-.54-.497 1.725 1.725 0 0 0-.825-.186h-1.763v2.531Zm0-3.46h1.597c.268 0 .508-.052.722-.155.216-.103.387-.247.513-.432.128-.187.193-.409.193-.663 0-.327-.115-.601-.344-.822-.229-.221-.58-.332-1.053-.332h-1.628v2.404ZM26.92 218.31v-5.926h1.154v5.926H26.92Zm.583-6.841a.732.732 0 0 1-.517-.2.651.651 0 0 1-.212-.486c0-.191.07-.353.212-.486a.724.724 0 0 1 .517-.205c.2 0 .372.068.513.205a.637.637 0 0 1 .216.486c0 .188-.072.35-.216.486a.718.718 0 0 1-.513.2ZM31.627 218.425c-.479 0-.906-.122-1.281-.366-.373-.247-.666-.598-.88-1.053-.21-.458-.316-1.007-.316-1.648 0-.64.107-1.188.32-1.643.216-.455.512-.804.887-1.046a2.313 2.313 0 0 1 1.277-.362c.368 0 .664.061.888.185.226.121.4.262.524.424.126.162.224.305.294.428h.069v-2.935h1.154v7.901h-1.127v-.923h-.096c-.07.126-.17.271-.301.433a1.674 1.674 0 0 1-.533.424c-.226.121-.52.181-.88.181Zm.254-.984c.332 0 .612-.087.841-.262a1.62 1.62 0 0 0 .525-.737c.12-.313.181-.679.181-1.095 0-.412-.059-.772-.177-1.081a1.588 1.588 0 0 0-.521-.721c-.229-.172-.512-.258-.849-.258-.347 0-.636.09-.868.27-.231.18-.406.425-.524.736a3.014 3.014 0 0 0-.174 1.054c0 .396.06.752.177 1.068.119.317.294.567.525.753.234.182.522.273.864.273ZM38.65 220.532v-8.148h1.126v.96h.096c.067-.123.164-.266.29-.428.126-.162.3-.303.524-.424.224-.124.52-.185.888-.185.478 0 .905.121 1.28.362.376.242.67.591.884 1.046.216.455.324 1.003.324 1.643 0 .641-.107 1.19-.32 1.648-.214.455-.507.806-.88 1.053a2.28 2.28 0 0 1-1.277.366c-.36 0-.654-.06-.883-.181a1.674 1.674 0 0 1-.533-.424 3.209 3.209 0 0 1-.297-.433h-.07v3.145H38.65Zm1.13-5.185c0 .416.06.782.181 1.095.121.314.296.56.525.737.229.175.509.262.84.262.345 0 .633-.091.865-.273.231-.186.406-.436.525-.753a2.97 2.97 0 0 0 .18-1.068c0-.391-.058-.742-.177-1.054a1.611 1.611 0 0 0-.524-.736c-.232-.18-.521-.27-.868-.27-.335 0-.617.086-.849.258a1.587 1.587 0 0 0-.52.721 3.014 3.014 0 0 0-.178 1.081ZM45.137 218.31v-5.926h1.115v.941h.062c.108-.319.298-.57.57-.752.276-.185.587-.278.934-.278a5.136 5.136 0 0 1 .49.027v1.103a2.19 2.19 0 0 0-.247-.042 2.356 2.356 0 0 0-.355-.027c-.272 0-.515.058-.729.174a1.289 1.289 0 0 0-.686 1.161v3.619h-1.154ZM49.09 218.31v-5.926h1.153v5.926h-1.154Zm.582-6.841a.732.732 0 0 1-.517-.2.651.651 0 0 1-.212-.486c0-.191.07-.353.212-.486a.724.724 0 0 1 .517-.205c.2 0 .371.068.513.205a.637.637 0 0 1 .216.486c0 .188-.072.35-.216.486a.718.718 0 0 1-.513.2ZM54.073 218.429c-.573 0-1.067-.13-1.481-.39a2.574 2.574 0 0 1-.95-1.084c-.22-.46-.33-.987-.33-1.581 0-.602.112-1.133.339-1.594.226-.463.545-.824.956-1.084.412-.259.897-.389 1.455-.389.45 0 .851.083 1.203.25.353.165.637.396.853.695.219.298.349.647.39 1.045h-1.123a1.344 1.344 0 0 0-.424-.717c-.219-.201-.512-.301-.88-.301-.321 0-.603.085-.845.254-.239.168-.425.407-.56.718-.133.309-.2.674-.2 1.096 0 .432.066.805.197 1.118.131.314.316.557.555.73.242.172.526.258.853.258.219 0 .417-.04.594-.12.18-.082.33-.199.452-.351.123-.151.21-.334.258-.547h1.123a2.182 2.182 0 0 1-.375 1.026 2.16 2.16 0 0 1-.837.71c-.347.172-.755.258-1.223.258ZM60.078 218.429c-.584 0-1.087-.125-1.509-.374a2.54 2.54 0 0 1-.972-1.061c-.226-.458-.34-.994-.34-1.609 0-.607.114-1.142.34-1.605.23-.463.548-.824.957-1.084.411-.259.892-.389 1.443-.389.334 0 .658.055.972.166.314.11.596.284.845.52.25.237.446.544.59.922.144.376.216.832.216 1.37v.409h-4.71v-.864h3.58c0-.304-.062-.573-.185-.807a1.402 1.402 0 0 0-1.3-.763c-.325 0-.607.079-.85.239-.238.157-.424.362-.555.617a1.782 1.782 0 0 0-.193.822v.675c0 .396.07.733.209 1.011.141.277.338.49.59.636.252.144.546.216.883.216.22 0 .418-.031.598-.092a1.233 1.233 0 0 0 .768-.753l1.092.197a1.976 1.976 0 0 1-.47.845 2.274 2.274 0 0 1-.846.559 3.144 3.144 0 0 1-1.153.197ZM230.655 220.25v-9.876h.633v9.876h-.633Zm1.979-6.813a1.126 1.126 0 0 0-.509-.849c-.298-.203-.674-.305-1.126-.305-.324 0-.605.052-.841.155-.237.1-.421.239-.552.416a.983.983 0 0 0-.193.598c0 .188.044.35.131.487.09.136.207.25.351.343.147.09.304.166.471.227.167.06.328.109.482.147l.772.201c.252.061.51.145.775.25.265.106.511.245.737.417.226.172.409.386.548.641.141.254.212.559.212.914 0 .447-.116.845-.347 1.192-.229.347-.562.621-.999.822-.435.2-.961.301-1.578.301-.592 0-1.104-.094-1.536-.282a2.36 2.36 0 0 1-1.014-.799c-.245-.347-.38-.758-.405-1.234h1.196c.023.285.115.523.277.714.165.187.375.327.629.42.257.09.539.135.845.135.337 0 .637-.053.899-.158.265-.108.473-.257.625-.448a1.06 1.06 0 0 0 .228-.675.83.83 0 0 0-.201-.575 1.487 1.487 0 0 0-.536-.37 5.148 5.148 0 0 0-.76-.258l-.934-.255c-.633-.172-1.134-.426-1.504-.76-.368-.334-.552-.777-.552-1.327 0-.455.123-.853.37-1.192a2.43 2.43 0 0 1 1.003-.791c.422-.19.898-.286 1.428-.286.535 0 1.007.094 1.416.282.411.188.735.446.972.775.236.327.36.703.37 1.127h-1.15Z" fill="#E3E5E8" fill-opacity="0.72"/><path d="M238.79 219.382c-.61-.003-1.131-.163-1.563-.482-.432-.319-.762-.783-.991-1.393-.229-.609-.343-1.344-.343-2.203 0-.856.114-1.588.343-2.195.231-.607.563-1.07.995-1.389.435-.319.954-.478 1.559-.478.604 0 1.122.161 1.555.482.432.319.762.782.991 1.389.232.604.347 1.335.347 2.191 0 .862-.114 1.597-.343 2.207-.229.607-.559 1.071-.992 1.393-.432.319-.951.478-1.558.478Zm0-1.03c.535 0 .953-.261 1.254-.783.303-.522.455-1.277.455-2.265 0-.656-.07-1.21-.208-1.662-.137-.456-.334-.8-.591-1.034a1.288 1.288 0 0 0-.91-.355c-.533 0-.95.262-1.254.787-.303.524-.456 1.279-.459 2.264 0 .659.068 1.215.204 1.671.139.452.336.796.591 1.03.254.231.56.347.918.347ZM243.324 219.324a.744.744 0 0 1-.544-.224.744.744 0 0 1-.228-.547c0-.211.076-.391.228-.541a.743.743 0 0 1 .544-.227c.21 0 .392.076.544.227.151.15.227.33.227.541a.788.788 0 0 1-.386.667.736.736 0 0 1-.385.104ZM247.939 211.242c.353.002.7.067 1.042.193.342.126.651.332.926.617.278.286.499.671.663 1.157.167.484.252 1.086.255 1.806 0 .692-.07 1.308-.208 1.848-.139.537-.339.991-.598 1.362-.258.37-.57.652-.938.845a2.645 2.645 0 0 1-1.242.289c-.471 0-.889-.093-1.254-.278a2.386 2.386 0 0 1-.891-.768 2.529 2.529 0 0 1-.428-1.134h1.176c.078.34.234.615.471.826.239.208.548.312.926.312.579 0 1.03-.252 1.354-.756.324-.507.487-1.214.49-2.122h-.062a2.125 2.125 0 0 1-.501.571 2.26 2.26 0 0 1-.668.371c-.247.087-.51.131-.791.131-.455 0-.869-.112-1.242-.336a2.474 2.474 0 0 1-.891-.922 2.673 2.673 0 0 1-.332-1.339c0-.499.113-.951.34-1.358.229-.406.548-.727.957-.964.411-.239.893-.356 1.446-.351Zm.004 1.003a1.52 1.52 0 0 0-.814.224 1.583 1.583 0 0 0-.567.598 1.68 1.68 0 0 0-.208.833c0 .306.067.584.2.833.137.247.322.444.556.591.236.144.506.216.81.216.226 0 .437-.044.633-.132a1.61 1.61 0 0 0 .513-.362c.146-.157.261-.335.343-.533.082-.198.124-.406.124-.625 0-.29-.07-.56-.209-.81a1.627 1.627 0 0 0-.563-.602 1.478 1.478 0 0 0-.818-.231ZM252.001 219.251v-.864l2.674-2.77c.285-.301.521-.565.706-.791.188-.229.328-.446.42-.652.093-.206.139-.424.139-.656 0-.262-.062-.489-.185-.679a1.21 1.21 0 0 0-.505-.444 1.616 1.616 0 0 0-.722-.158c-.283 0-.53.058-.741.174a1.2 1.2 0 0 0-.486.49 1.547 1.547 0 0 0-.169.741h-1.138c0-.481.11-.902.331-1.262.222-.36.525-.639.911-.837a2.804 2.804 0 0 1 1.315-.301c.497 0 .934.099 1.312.297.381.195.678.463.891.802.214.337.32.718.32 1.142 0 .294-.055.58-.165.861-.108.28-.298.592-.568.937-.27.342-.645.758-1.126 1.246l-1.57 1.644v.058h3.557v1.022h-5.201ZM261.055 219.359c-.484 0-.919-.093-1.304-.278a2.374 2.374 0 0 1-.919-.771 2.035 2.035 0 0 1-.366-1.119h1.157c.029.339.179.618.452.837.272.219.599.328.98.328.303 0 .572-.07.806-.208.236-.142.422-.336.555-.583.137-.247.205-.529.205-.845 0-.321-.07-.608-.209-.86a1.532 1.532 0 0 0-.574-.594 1.62 1.62 0 0 0-.834-.22c-.239 0-.479.041-.721.123a1.694 1.694 0 0 0-.586.324l-1.092-.162.443-3.981h4.344v1.022h-3.352l-.251 2.211h.046c.155-.149.359-.274.614-.374.257-.101.532-.151.825-.151a2.418 2.418 0 0 1 2.176 1.281c.219.393.327.846.324 1.358a2.64 2.64 0 0 1-.347 1.37 2.519 2.519 0 0 1-.964.949 2.845 2.845 0 0 1-1.408.343Z" fill="#fff"/><path d="M20.122 243.648v-7.901h2.816c.615 0 1.124.112 1.528.336.404.224.706.53.907.918.2.386.3.821.3 1.304 0 .486-.101.924-.304 1.312-.2.386-.504.692-.91.918-.404.224-.912.336-1.524.336h-1.937v-1.011h1.828c.389 0 .704-.067.946-.201.241-.136.419-.321.532-.555.113-.234.17-.5.17-.799a1.79 1.79 0 0 0-.17-.795 1.217 1.217 0 0 0-.536-.543c-.242-.132-.56-.197-.957-.197h-1.497v6.878h-1.192ZM26.761 243.648v-5.925h1.154v5.925H26.76Zm.583-6.84a.736.736 0 0 1-.517-.2.654.654 0 0 1-.212-.486c0-.191.07-.353.212-.486a.723.723 0 0 1 .517-.205c.2 0 .371.068.513.205a.637.637 0 0 1 .216.486.649.649 0 0 1-.216.486.722.722 0 0 1-.513.2ZM29.25 245.871v-8.148h1.126v.96h.096c.067-.123.163-.266.29-.428.126-.162.3-.303.524-.424.224-.124.52-.185.887-.185.479 0 .906.12 1.281.362.376.242.67.59.884 1.046.216.455.324 1.003.324 1.643 0 .64-.107 1.19-.32 1.647-.214.456-.507.807-.88 1.054a2.28 2.28 0 0 1-1.277.366c-.36 0-.654-.06-.883-.181a1.675 1.675 0 0 1-.533-.425 3.217 3.217 0 0 1-.297-.432h-.07v3.145H29.25Zm1.13-5.185c0 .416.06.781.18 1.095.122.314.297.56.526.737.229.175.509.262.84.262.345 0 .633-.091.865-.274a1.7 1.7 0 0 0 .525-.752 2.97 2.97 0 0 0 .18-1.068c0-.391-.058-.742-.177-1.054a1.614 1.614 0 0 0-.524-.737c-.232-.18-.521-.27-.868-.27-.335 0-.618.087-.85.259a1.587 1.587 0 0 0-.52.721 3.014 3.014 0 0 0-.177 1.081ZM38.29 243.768c-.583 0-1.086-.125-1.508-.374a2.54 2.54 0 0 1-.972-1.061c-.226-.458-.34-.994-.34-1.609 0-.607.114-1.142.34-1.605.23-.463.548-.824.957-1.084.411-.26.892-.389 1.443-.389.334 0 .658.055.972.165.314.111.596.285.845.521.25.237.446.544.59.922.144.376.216.832.216 1.37v.409h-4.71v-.864h3.58c0-.304-.062-.573-.185-.807a1.401 1.401 0 0 0-.521-.559 1.459 1.459 0 0 0-.78-.205c-.323 0-.606.08-.848.24-.24.156-.425.362-.556.617a1.782 1.782 0 0 0-.193.822v.675c0 .396.07.733.209 1.01.141.278.338.49.59.637.252.144.547.216.884.216.218 0 .417-.031.597-.093a1.243 1.243 0 0 0 .768-.752l1.092.197a1.981 1.981 0 0 1-.47.845 2.286 2.286 0 0 1-.846.559 3.165 3.165 0 0 1-1.153.197ZM47.374 237.723v.926h-3.349v-.926h3.349Zm-2.43 5.925v-6.612c0-.37.08-.678.242-.922.162-.247.377-.431.645-.552.267-.123.558-.185.871-.185.232 0 .43.019.595.058.164.036.286.069.366.1l-.27.934a3.93 3.93 0 0 0-.208-.054 1.193 1.193 0 0 0-.309-.035c-.28 0-.48.07-.602.208-.118.139-.177.34-.177.602v6.458h-1.154ZM50.667 243.768c-.584 0-1.087-.125-1.508-.374a2.54 2.54 0 0 1-.972-1.061c-.227-.458-.34-.994-.34-1.609 0-.607.113-1.142.34-1.605.228-.463.547-.824.956-1.084.412-.26.893-.389 1.443-.389.334 0 .659.055.972.165.314.111.596.285.845.521.25.237.446.544.59.922.145.376.216.832.216 1.37v.409H48.5v-.864h3.58c0-.304-.062-.573-.185-.807a1.4 1.4 0 0 0-.52-.559 1.458 1.458 0 0 0-.78-.205c-.324 0-.607.08-.849.24-.24.156-.424.362-.555.617a1.782 1.782 0 0 0-.193.822v.675c0 .396.07.733.208 1.01.141.278.338.49.59.637.252.144.547.216.884.216.218 0 .418-.031.598-.093a1.244 1.244 0 0 0 .768-.752l1.091.197a1.983 1.983 0 0 1-.47.845 2.285 2.285 0 0 1-.845.559 3.165 3.165 0 0 1-1.154.197ZM56.826 243.768c-.584 0-1.087-.125-1.508-.374a2.54 2.54 0 0 1-.973-1.061c-.226-.458-.34-.994-.34-1.609 0-.607.114-1.142.34-1.605.23-.463.548-.824.957-1.084.412-.26.893-.389 1.443-.389.334 0 .658.055.972.165.314.111.596.285.845.521.25.237.446.544.59.922.144.376.216.832.216 1.37v.409h-4.71v-.864h3.58c0-.304-.062-.573-.185-.807a1.401 1.401 0 0 0-.521-.559 1.458 1.458 0 0 0-.78-.205c-.323 0-.606.08-.848.24-.24.156-.424.362-.556.617a1.782 1.782 0 0 0-.192.822v.675c0 .396.069.733.208 1.01.141.278.338.49.59.637.252.144.547.216.883.216.22 0 .418-.031.598-.093a1.241 1.241 0 0 0 .768-.752l1.092.197a1.98 1.98 0 0 1-.47.845 2.285 2.285 0 0 1-.846.559 3.166 3.166 0 0 1-1.153.197ZM225.147 240.163c0-.967.128-1.857.382-2.67a7.984 7.984 0 0 1 1.115-2.249h1.057c-.19.255-.367.567-.532.937a8.779 8.779 0 0 0-.432 1.22c-.124.439-.22.896-.289 1.369a9.463 9.463 0 0 0 .077 3.252c.121.628.284 1.21.49 1.748.205.537.434.976.686 1.315h-1.057a7.97 7.97 0 0 1-1.115-2.249c-.254-.812-.382-1.704-.382-2.673ZM231.123 245.101v-9.876h.633v9.876h-.633Zm1.979-6.813a1.129 1.129 0 0 0-.509-.849c-.298-.203-.674-.305-1.127-.305-.324 0-.604.052-.841.155-.236.1-.42.239-.551.416a.983.983 0 0 0-.193.598c0 .188.044.35.131.486.09.137.207.251.351.344.147.09.304.166.471.227.167.059.328.108.482.147l.772.201c.252.061.51.145.775.25.265.106.51.245.737.417a1.864 1.864 0 0 1 .76 1.555c0 .447-.116.845-.347 1.192-.229.347-.562.621-1 .821-.434.201-.96.301-1.577.301-.592 0-1.104-.093-1.536-.281a2.37 2.37 0 0 1-1.015-.799 2.32 2.32 0 0 1-.405-1.234h1.196c.023.285.116.523.278.713.165.188.374.328.629.421.257.09.539.135.845.135.337 0 .636-.053.899-.158.265-.108.473-.257.625-.448.151-.193.227-.418.227-.675a.832.832 0 0 0-.2-.575 1.483 1.483 0 0 0-.537-.37 5.222 5.222 0 0 0-.76-.259l-.933-.254c-.633-.173-1.134-.426-1.505-.76-.368-.335-.551-.777-.551-1.327 0-.456.123-.853.37-1.192.247-.34.581-.604 1.003-.791a3.425 3.425 0 0 1 1.427-.286c.535 0 1.007.094 1.416.282.412.188.736.446.972.775.237.327.36.702.371 1.127h-1.15ZM237.724 244.202a2.98 2.98 0 0 1-1.304-.278 2.378 2.378 0 0 1-.918-.771 2.035 2.035 0 0 1-.366-1.119h1.157c.028.339.179.618.451.837.273.219.6.328.98.328.304 0 .573-.07.807-.208.236-.142.421-.336.555-.583a1.71 1.71 0 0 0 .205-.845c0-.321-.07-.608-.209-.86a1.539 1.539 0 0 0-.574-.594 1.62 1.62 0 0 0-.834-.22c-.239 0-.479.041-.721.123a1.708 1.708 0 0 0-.587.324l-1.091-.162.443-3.981h4.344v1.022h-3.352l-.251 2.211h.046c.155-.149.359-.274.614-.374.257-.101.532-.151.825-.151a2.42 2.42 0 0 1 2.176 1.281c.219.394.327.846.324 1.358a2.64 2.64 0 0 1-.347 1.37 2.519 2.519 0 0 1-.964.949c-.409.229-.879.343-1.409.343ZM242.866 243.014l-.058.42c-.039.309-.104.63-.197.965-.09.337-.184.649-.282.937a24.82 24.82 0 0 1-.235.687h-.818l.139-.648c.059-.27.117-.573.174-.907.056-.334.099-.675.127-1.022l.039-.432h1.111ZM244.327 244.094l3.449-6.821v-.058h-3.99v-1.022h5.224v1.057l-3.437 6.844h-1.246ZM252.645 244.202c-.553 0-1.042-.095-1.466-.286a2.398 2.398 0 0 1-.992-.787 1.897 1.897 0 0 1-.355-1.141 2.023 2.023 0 0 1 .205-.923 2.02 2.02 0 0 1 .575-.705c.242-.191.512-.312.81-.363v-.046a1.593 1.593 0 0 1-.945-.633 1.846 1.846 0 0 1-.351-1.127 1.848 1.848 0 0 1 .32-1.08c.218-.319.518-.57.899-.752.38-.183.814-.274 1.3-.274.481 0 .91.093 1.288.278.381.182.681.433.899.752.219.316.329.675.332 1.076-.003.425-.123.8-.363 1.127-.239.327-.55.537-.933.633v.046c.296.051.562.172.798.363.24.187.43.423.571.705.144.281.218.588.22.923a1.93 1.93 0 0 1-.362 1.141c-.24.335-.571.597-.996.787-.421.191-.906.286-1.454.286Zm0-.976c.327 0 .609-.054.849-.162.239-.111.424-.264.555-.459.131-.198.198-.43.201-.695a1.308 1.308 0 0 0-.216-.729 1.435 1.435 0 0 0-.567-.497 1.798 1.798 0 0 0-.822-.182c-.311 0-.588.061-.83.182-.241.12-.432.286-.571.497a1.276 1.276 0 0 0-.204.729c-.003.265.06.497.189.695.131.195.318.348.559.459.242.108.528.162.857.162Zm0-3.677c.262 0 .495-.052.698-.158.203-.105.363-.252.479-.44.118-.187.178-.407.181-.659a1.223 1.223 0 0 0-.178-.648 1.127 1.127 0 0 0-.474-.429 1.542 1.542 0 0 0-.706-.154c-.273 0-.512.051-.718.154a1.127 1.127 0 0 0-.474.429 1.19 1.19 0 0 0-.166.648c-.003.252.054.472.17.659.115.188.275.335.478.44.206.106.442.158.71.158ZM259.62 236.193v7.901h-1.196v-6.705h-.047l-1.89 1.234v-1.141l1.971-1.289h1.162ZM263.773 240.143c0 .97-.127 1.861-.382 2.674a7.931 7.931 0 0 1-1.115 2.249h-1.057c.191-.255.368-.567.533-.937.164-.371.308-.776.432-1.216.123-.442.22-.9.289-1.373a9.534 9.534 0 0 0-.077-3.252 10.363 10.363 0 0 0-.49-1.748c-.206-.537-.435-.976-.687-1.315h1.057a7.918 7.918 0 0 1 1.115 2.249c.255.813.382 1.702.382 2.669ZM20.122 261.9v-1.026h6.115v1.026h-2.465v6.875h-1.189V261.9h-2.46ZM28.915 268.895c-.556 0-1.04-.128-1.455-.382a2.578 2.578 0 0 1-.964-1.069c-.229-.458-.343-.993-.343-1.605 0-.615.114-1.152.343-1.612a2.57 2.57 0 0 1 .964-1.073c.415-.255.9-.382 1.455-.382s1.04.127 1.454.382c.414.255.736.612.965 1.073.229.46.343.997.343 1.612 0 .612-.114 1.147-.343 1.605-.23.458-.55.814-.965 1.069-.414.254-.899.382-1.454.382Zm.004-.969c.36 0 .658-.095.895-.285.236-.191.411-.444.524-.76.116-.317.174-.665.174-1.046 0-.378-.058-.725-.174-1.041a1.697 1.697 0 0 0-.524-.768c-.237-.193-.535-.289-.895-.289-.363 0-.664.096-.903.289a1.725 1.725 0 0 0-.528.768c-.114.316-.17.663-.17 1.041 0 .381.056.729.17 1.046.115.316.291.569.528.76.24.19.54.285.903.285ZM35.514 262.849v.926h-3.237v-.926h3.236Zm-2.37-1.419h1.154v5.605c0 .224.034.392.1.505a.521.521 0 0 0 .259.228c.108.039.225.058.351.058.093 0 .174-.007.243-.019l.162-.031.209.953a2.241 2.241 0 0 1-.748.123 2.035 2.035 0 0 1-.85-.162 1.452 1.452 0 0 1-.636-.525c-.162-.236-.243-.533-.243-.891v-5.844ZM38.297 268.906c-.376 0-.715-.069-1.019-.208a1.717 1.717 0 0 1-.721-.614c-.175-.267-.263-.595-.263-.983 0-.335.065-.61.193-.826.129-.216.302-.387.521-.513.219-.126.463-.221.733-.286.27-.064.545-.113.826-.146l.864-.1c.221-.029.382-.074.482-.135.1-.062.15-.162.15-.301v-.027c0-.337-.095-.598-.285-.784-.188-.185-.468-.277-.84-.277-.39 0-.695.086-.92.258-.22.17-.373.359-.458.567l-1.084-.247c.128-.36.316-.65.563-.871.25-.224.536-.386.86-.487a3.386 3.386 0 0 1 1.775-.069c.267.054.517.154.748.301.234.146.426.356.575.629.15.27.224.621.224 1.053v3.935h-1.127v-.81h-.046a1.644 1.644 0 0 1-.336.44 1.78 1.78 0 0 1-.574.358 2.213 2.213 0 0 1-.841.143Zm.25-.926c.32 0 .592-.063.818-.189.23-.126.403-.29.521-.494.121-.205.181-.425.181-.659v-.764a.603.603 0 0 1-.239.116 3.665 3.665 0 0 1-.397.088l-.436.066-.355.046a2.836 2.836 0 0 0-.613.143c-.183.067-.33.163-.44.289-.108.124-.162.288-.162.494 0 .286.105.502.316.648.211.144.48.216.806.216ZM43.694 260.874v7.901H42.54v-7.901h1.154ZM47.686 270.997v-8.148h1.127v.961h.096a3.19 3.19 0 0 1 .29-.428c.125-.162.3-.304.524-.425.224-.123.52-.185.887-.185.479 0 .906.121 1.281.363.376.242.67.59.884 1.045.215.455.324 1.003.324 1.644 0 .64-.107 1.189-.32 1.647-.214.455-.507.806-.88 1.053a2.273 2.273 0 0 1-1.277.367c-.36 0-.655-.061-.884-.182a1.673 1.673 0 0 1-.532-.424 3.208 3.208 0 0 1-.297-.432h-.07v3.144h-1.153Zm1.13-5.185c0 .417.06.782.182 1.096.12.314.295.559.524.737.23.174.51.262.841.262.345 0 .633-.091.864-.274a1.7 1.7 0 0 0 .525-.752c.121-.317.181-.673.181-1.069 0-.391-.059-.742-.177-1.053a1.613 1.613 0 0 0-.525-.737c-.231-.18-.52-.27-.868-.27-.334 0-.617.086-.848.258a1.59 1.59 0 0 0-.521.722 3.012 3.012 0 0 0-.178 1.08ZM55.898 268.906c-.375 0-.715-.069-1.018-.208a1.718 1.718 0 0 1-.722-.614c-.175-.267-.262-.595-.262-.983 0-.335.064-.61.193-.826.128-.216.302-.387.52-.513.22-.126.464-.221.734-.286.27-.064.545-.113.825-.146l.864-.1c.222-.029.382-.074.483-.135.1-.062.15-.162.15-.301v-.027c0-.337-.095-.598-.285-.784-.188-.185-.469-.277-.842-.277-.388 0-.694.086-.918.258-.22.17-.374.359-.459.567l-1.084-.247c.129-.36.317-.65.564-.871.249-.224.536-.386.86-.487a3.385 3.385 0 0 1 1.022-.154c.237 0 .487.028.752.085.268.054.517.154.749.301.234.146.425.356.575.629.149.27.223.621.223 1.053v3.935h-1.126v-.81h-.046a1.646 1.646 0 0 1-.336.44 1.78 1.78 0 0 1-.575.358 2.214 2.214 0 0 1-.84.143Zm.25-.926c.32 0 .592-.063.819-.189.229-.126.402-.29.52-.494.121-.205.182-.425.182-.659v-.764a.602.602 0 0 1-.24.116 3.663 3.663 0 0 1-.397.088l-.436.066-.354.046a2.834 2.834 0 0 0-.614.143c-.182.067-.33.163-.44.289-.108.124-.162.288-.162.494 0 .286.106.502.317.648.21.144.48.216.806.216ZM60.658 270.997c-.172 0-.329-.014-.47-.042a1.488 1.488 0 0 1-.317-.085l.278-.945c.211.056.399.081.563.073a.68.68 0 0 0 .436-.185c.129-.116.242-.305.34-.567l.143-.394-2.169-6.003h1.235l1.5 4.599h.063l1.5-4.599H65l-2.442 6.717c-.114.308-.258.57-.433.783a1.677 1.677 0 0 1-.625.486 2.045 2.045 0 0 1-.84.162ZM68.16 268.895c-.556 0-1.04-.128-1.455-.382a2.578 2.578 0 0 1-.964-1.069c-.229-.458-.343-.993-.343-1.605 0-.615.114-1.152.343-1.612a2.57 2.57 0 0 1 .964-1.073c.415-.255.9-.382 1.455-.382s1.04.127 1.454.382c.414.255.736.612.965 1.073.229.46.343.997.343 1.612 0 .612-.114 1.147-.343 1.605-.23.458-.55.814-.965 1.069-.414.254-.899.382-1.454.382Zm.004-.969c.36 0 .658-.095.895-.285.236-.191.411-.444.524-.76.116-.317.174-.665.174-1.046 0-.378-.058-.725-.174-1.041a1.697 1.697 0 0 0-.524-.768c-.237-.193-.535-.289-.895-.289-.363 0-.664.096-.903.289a1.726 1.726 0 0 0-.529.768 3.07 3.07 0 0 0-.17 1.041c0 .381.057.729.17 1.046.116.316.292.569.529.76.24.19.54.285.903.285ZM75.746 266.317v-3.468h1.157v5.926H75.77v-1.026h-.062c-.136.316-.354.58-.655.791-.299.208-.67.312-1.115.312-.38 0-.718-.083-1.011-.251-.29-.169-.52-.42-.687-.752-.164-.332-.247-.742-.247-1.231v-3.769h1.154v3.631c0 .403.112.725.335.964.224.239.515.359.872.359.217 0 .431-.054.645-.162.216-.108.394-.272.536-.49.144-.219.215-.497.212-.834ZM81.002 262.849v.926h-3.237v-.926h3.237Zm-2.368-1.419h1.153v5.605c0 .224.033.392.1.505a.521.521 0 0 0 .259.228c.108.039.225.058.35.058.093 0 .174-.007.244-.019l.162-.031.208.953a2.241 2.241 0 0 1-.748.123 2.035 2.035 0 0 1-.849-.162 1.452 1.452 0 0 1-.637-.525c-.162-.236-.243-.533-.243-.891v-5.844Z" fill="#E3E5E8" fill-opacity="0.72"/><g clip-path="url(#order-box_svg__c)"><path d="M201.147 269.931v-9.877h.632v9.877h-.632Zm1.979-6.813a1.127 1.127 0 0 0-.51-.849c-.298-.203-.673-.305-1.126-.305-.324 0-.604.052-.841.154-.237.101-.421.24-.552.417a.987.987 0 0 0-.193.598c0 .188.044.35.131.486.091.136.208.251.352.343.146.09.303.166.47.228.167.059.328.108.482.147l.772.2c.252.062.511.146.775.251.265.106.511.244.737.417.227.172.409.385.548.64.142.255.212.56.212.914 0 .448-.115.845-.347 1.193-.229.347-.562.621-.999.821-.435.201-.961.301-1.578.301-.592 0-1.103-.094-1.535-.281a2.364 2.364 0 0 1-1.015-.799c-.244-.347-.379-.759-.405-1.235h1.196c.023.286.116.524.278.714a1.5 1.5 0 0 0 .628.421c.258.09.539.135.845.135.337 0 .637-.053.899-.158.265-.109.473-.258.625-.448a1.06 1.06 0 0 0 .228-.675.828.828 0 0 0-.201-.575 1.475 1.475 0 0 0-.536-.37 5.264 5.264 0 0 0-.76-.259l-.934-.254c-.632-.173-1.134-.426-1.504-.76-.368-.335-.552-.777-.552-1.328 0-.455.124-.852.37-1.192a2.434 2.434 0 0 1 1.003-.79 3.426 3.426 0 0 1 1.428-.286c.535 0 1.007.094 1.416.282.411.187.735.446.972.775.237.327.36.702.37 1.127h-1.149Z" fill="#E3E5E8" fill-opacity="0.72"/></g><path d="M209.434 269.084a2.98 2.98 0 0 1-1.304-.278 2.371 2.371 0 0 1-.918-.772 2.03 2.03 0 0 1-.366-1.119h1.157c.028.34.179.619.451.838.273.218.6.328.98.328.304 0 .573-.07.807-.209.236-.141.421-.335.555-.582.136-.247.205-.529.205-.845 0-.322-.07-.608-.209-.861a1.534 1.534 0 0 0-.575-.594 1.624 1.624 0 0 0-.833-.22c-.239 0-.479.042-.721.124-.242.082-.437.19-.587.324l-1.091-.162.443-3.981h4.344v1.022h-3.352l-.251 2.211h.046c.155-.15.359-.274.614-.375.257-.1.532-.15.825-.15a2.42 2.42 0 0 1 2.176 1.281c.219.393.327.846.324 1.358.003.511-.113.968-.347 1.369a2.514 2.514 0 0 1-.965.949c-.408.229-.878.344-1.408.344ZM213.612 268.976l3.449-6.821v-.058h-3.989v-1.022h5.224v1.057l-3.438 6.844h-1.246ZM219.42 268.976v-.865l2.673-2.77c.286-.3.521-.564.706-.79.188-.229.328-.447.421-.652.093-.206.139-.425.139-.656 0-.263-.062-.489-.185-.679a1.213 1.213 0 0 0-.506-.444 1.611 1.611 0 0 0-.721-.158c-.283 0-.53.058-.741.174a1.183 1.183 0 0 0-.486.49 1.54 1.54 0 0 0-.17.74h-1.138c0-.481.111-.901.332-1.261.221-.36.525-.639.91-.837a2.808 2.808 0 0 1 1.316-.301c.496 0 .934.099 1.312.297.38.195.677.463.891.802.213.337.32.718.32 1.142 0 .293-.055.58-.166.86-.108.281-.297.593-.567.938-.27.342-.646.757-1.126 1.246l-1.571 1.643v.058h3.557v1.023h-5.2ZM227.381 267.895l-.058.421c-.038.309-.104.63-.196.964-.09.337-.184.65-.282.938-.095.288-.174.517-.235.687h-.818c.033-.16.08-.376.139-.649.059-.27.117-.572.173-.906.057-.335.099-.675.128-1.023l.038-.432h1.111ZM231.242 269.084c-.53 0-1.003-.092-1.42-.274a2.416 2.416 0 0 1-.984-.76 2.02 2.02 0 0 1-.385-1.135h1.211c.015.235.094.438.235.61.144.17.332.301.564.394.231.092.488.138.771.138.311 0 .587-.054.826-.162a1.35 1.35 0 0 0 .567-.451c.136-.195.204-.421.204-.675 0-.265-.068-.498-.204-.698a1.334 1.334 0 0 0-.59-.479c-.258-.116-.569-.173-.934-.173h-.667v-.973h.667c.293 0 .55-.052.772-.158.223-.105.398-.252.524-.44.126-.19.189-.412.189-.667 0-.244-.055-.456-.166-.637a1.116 1.116 0 0 0-.463-.428 1.502 1.502 0 0 0-.702-.154c-.257 0-.497.048-.721.143a1.327 1.327 0 0 0-.54.401 1.028 1.028 0 0 0-.224.621h-1.154c.013-.427.139-.802.379-1.126.241-.325.56-.578.956-.76a3.109 3.109 0 0 1 1.32-.274c.506 0 .944.099 1.311.297.371.195.656.456.857.783.203.326.303.684.301 1.072.002.443-.121.818-.371 1.127a1.803 1.803 0 0 1-.987.621v.062c.524.079.931.288 1.219.625.29.337.435.754.432 1.253.003.435-.118.825-.363 1.169a2.46 2.46 0 0 1-.991.814c-.419.196-.899.294-1.439.294ZM235.11 267.432v-.964l3.414-5.393h.76v1.419h-.482l-2.442 3.866v.062h4.68v1.01h-5.93Zm3.746 1.544v-1.837l.008-.44v-5.624h1.13v7.901h-1.138ZM242.001 267.432v-.964l3.414-5.393h.76v1.419h-.482l-2.442 3.866v.062h4.679v1.01h-5.929Zm3.746 1.544v-1.837l.008-.44v-5.624h1.13v7.901h-1.138ZM249.536 269.049a.75.75 0 0 1-.544-.224.746.746 0 0 1-.228-.548c0-.211.076-.391.228-.54a.741.741 0 0 1 .544-.227c.211 0 .392.075.544.227a.728.728 0 0 1 .228.54.734.734 0 0 1-.108.39.804.804 0 0 1-.278.278.74.74 0 0 1-.386.104ZM254.084 269.107c-.609-.003-1.13-.164-1.562-.482-.432-.319-.763-.784-.992-1.393-.229-.61-.343-1.344-.343-2.203 0-.856.114-1.588.343-2.195.232-.607.564-1.07.996-1.389.434-.319.954-.478 1.558-.478.605 0 1.123.16 1.555.482.432.319.763.782.991 1.389.232.604.348 1.335.348 2.191 0 .862-.115 1.597-.344 2.207-.229.607-.559 1.071-.991 1.392-.432.319-.952.479-1.559.479Zm0-1.03c.535 0 .953-.261 1.254-.783.304-.523.455-1.277.455-2.265 0-.656-.069-1.21-.208-1.663-.136-.455-.333-.8-.59-1.034a1.295 1.295 0 0 0-.911-.355c-.532 0-.95.263-1.254.787-.303.525-.456 1.28-.459 2.265 0 .658.068 1.215.205 1.67.139.453.335.796.59 1.03.255.232.561.348.918.348ZM260.88 269.107c-.61-.003-1.131-.164-1.563-.482-.432-.319-.762-.784-.991-1.393-.229-.61-.344-1.344-.344-2.203 0-.856.115-1.588.344-2.195.231-.607.563-1.07.995-1.389.435-.319.954-.478 1.559-.478.604 0 1.122.16 1.554.482.432.319.763.782.992 1.389.231.604.347 1.335.347 2.191 0 .862-.114 1.597-.343 2.207-.229.607-.56 1.071-.992 1.392-.432.319-.951.479-1.558.479Zm0-1.03c.535 0 .952-.261 1.253-.783.304-.523.456-1.277.456-2.265 0-.656-.07-1.21-.209-1.663-.136-.455-.333-.8-.59-1.034a1.294 1.294 0 0 0-.91-.355c-.533 0-.951.263-1.254.787-.304.525-.457 1.28-.459 2.265 0 .658.068 1.215.204 1.67.139.453.336.796.59 1.03.255.232.561.348.919.348Z" fill="#fff"/><path fill-rule="evenodd" clip-rule="evenodd" d="M266.877 287.127H20.122v-.776h246.755v.776Z" fill="#3F4550"/><path d="M20.122 310.142v-7.901h2.816c.615 0 1.124.112 1.528.336.404.224.706.53.907.918.2.386.3.821.3 1.304 0 .486-.101.923-.304 1.312-.2.386-.504.692-.91.918-.404.224-.912.336-1.524.336h-1.937v-1.011h1.828c.389 0 .704-.067.946-.201.241-.136.419-.321.532-.555.113-.234.17-.501.17-.799a1.79 1.79 0 0 0-.17-.795 1.224 1.224 0 0 0-.536-.544c-.242-.131-.56-.196-.957-.196h-1.497v6.878h-1.192ZM28.433 310.273c-.376 0-.715-.069-1.019-.208a1.715 1.715 0 0 1-.721-.613c-.175-.268-.263-.596-.263-.984 0-.334.065-.61.193-.826.129-.216.302-.387.521-.513a2.71 2.71 0 0 1 .733-.285c.27-.065.545-.113.826-.147l.864-.1c.221-.028.382-.073.482-.135.1-.062.15-.162.15-.301v-.027c0-.337-.095-.598-.285-.783-.188-.185-.468-.278-.841-.278-.388 0-.694.086-.918.258-.221.17-.374.359-.46.568l-1.083-.247c.128-.36.316-.651.563-.872.25-.224.536-.386.86-.486a3.355 3.355 0 0 1 1.023-.155c.236 0 .487.029.752.085.267.054.517.155.748.301.234.147.426.356.575.629.15.27.224.621.224 1.053v3.935H30.23v-.81h-.046a1.646 1.646 0 0 1-.335.44c-.15.144-.341.264-.575.359a2.234 2.234 0 0 1-.841.142Zm.25-.925c.32 0 .592-.063.818-.189.23-.127.403-.291.521-.494.121-.206.181-.426.181-.66v-.764a.603.603 0 0 1-.239.116 3.896 3.896 0 0 1-.397.089c-.15.023-.295.045-.436.065l-.355.046a2.894 2.894 0 0 0-.613.143c-.183.067-.33.164-.44.29-.108.123-.162.288-.162.493 0 .286.105.502.316.649.211.144.48.216.806.216ZM33.193 312.364c-.172 0-.33-.014-.47-.042a1.488 1.488 0 0 1-.317-.085l.278-.945c.21.056.398.081.563.073a.674.674 0 0 0 .436-.185c.129-.116.242-.305.34-.567l.142-.394-2.168-6.002h1.235l1.5 4.598h.062l1.5-4.598h1.24l-2.443 6.716c-.113.309-.257.57-.432.783a1.677 1.677 0 0 1-.625.486 2.045 2.045 0 0 1-.841.162ZM40.694 310.262c-.555 0-1.04-.127-1.454-.382a2.578 2.578 0 0 1-.965-1.069c-.228-.458-.343-.992-.343-1.605 0-.614.115-1.152.343-1.612a2.57 2.57 0 0 1 .965-1.073c.414-.254.899-.382 1.454-.382.556 0 1.04.128 1.455.382.414.255.735.612.964 1.073.23.46.344.998.344 1.612 0 .613-.115 1.147-.344 1.605-.229.458-.55.814-.964 1.069-.414.255-.9.382-1.455.382Zm.004-.968c.36 0 .659-.096.895-.286.237-.19.412-.444.525-.76a3.02 3.02 0 0 0 .173-1.045c0-.379-.057-.726-.173-1.042a1.698 1.698 0 0 0-.525-.768c-.236-.193-.535-.289-.895-.289-.362 0-.663.096-.903.289a1.726 1.726 0 0 0-.528.768c-.113.316-.17.663-.17 1.042 0 .38.057.729.17 1.045a1.7 1.7 0 0 0 .528.76c.24.19.54.286.903.286ZM48.28 307.685v-3.468h1.158v5.925h-1.134v-1.026h-.062c-.136.316-.355.58-.656.791-.298.208-.67.312-1.115.312-.38 0-.717-.083-1.01-.25-.291-.17-.52-.421-.687-.753-.165-.331-.247-.742-.247-1.23v-3.769h1.153v3.63c0 .404.112.725.336.964.224.239.514.359.872.359.216 0 .43-.054.644-.162.216-.108.395-.271.536-.49.144-.219.215-.496.213-.833ZM53.537 304.217v.925H50.3v-.925h3.237Zm-2.369-1.42h1.154v5.605c0 .224.033.393.1.506.067.11.153.186.258.227.108.039.225.058.351.058.093 0 .174-.006.243-.019l.162-.031.209.953a2.241 2.241 0 0 1-.748.123 2.004 2.004 0 0 1-.85-.162 1.457 1.457 0 0 1-.636-.524c-.162-.237-.243-.534-.243-.891v-5.845ZM60.02 304.217v.925h-3.237v-.925h3.236Zm-2.37-1.42h1.154v5.605c0 .224.033.393.1.506.067.11.153.186.259.227.108.039.225.058.35.058.093 0 .175-.006.244-.019l.162-.031.208.953a2.243 2.243 0 0 1-.748.123 2.004 2.004 0 0 1-.849-.162 1.458 1.458 0 0 1-.636-.524c-.162-.237-.243-.534-.243-.891v-5.845ZM63.51 310.262c-.555 0-1.04-.127-1.454-.382a2.577 2.577 0 0 1-.964-1.069c-.23-.458-.344-.992-.344-1.605 0-.614.115-1.152.344-1.612a2.57 2.57 0 0 1 .964-1.073c.414-.254.899-.382 1.454-.382.556 0 1.04.128 1.455.382.414.255.735.612.964 1.073.23.46.344.998.344 1.612 0 .613-.115 1.147-.344 1.605-.229.458-.55.814-.964 1.069-.414.255-.899.382-1.455.382Zm.004-.968c.36 0 .659-.096.895-.286.237-.19.412-.444.525-.76.116-.316.174-.665.174-1.045 0-.379-.058-.726-.174-1.042a1.698 1.698 0 0 0-.525-.768c-.236-.193-.535-.289-.895-.289-.362 0-.663.096-.903.289a1.725 1.725 0 0 0-.528.768c-.113.316-.17.663-.17 1.042 0 .38.057.729.17 1.045a1.7 1.7 0 0 0 .529.76c.239.19.54.286.902.286ZM201.638 309c-.311 0-.596-.075-.853-.227a1.77 1.77 0 0 1-.617-.617 1.649 1.649 0 0 1-.228-.853c0-.314.076-.598.228-.853.154-.257.36-.461.617-.613a1.63 1.63 0 0 1 .853-.231c.314 0 .598.077.852.231.258.152.462.356.614.613.154.255.231.539.231.853 0 .311-.077.595-.231.853a1.737 1.737 0 0 1-.614.617 1.627 1.627 0 0 1-.852.227ZM207.171 309c-.311 0-.596-.075-.853-.227a1.77 1.77 0 0 1-.617-.617 1.649 1.649 0 0 1-.228-.853c0-.314.076-.598.228-.853.154-.257.36-.461.617-.613a1.63 1.63 0 0 1 .853-.231c.314 0 .598.077.852.231.258.152.462.356.614.613.154.255.231.539.231.853 0 .311-.077.595-.231.853a1.737 1.737 0 0 1-.614.617 1.627 1.627 0 0 1-.852.227ZM212.704 309c-.312 0-.596-.075-.853-.227a1.77 1.77 0 0 1-.617-.617 1.649 1.649 0 0 1-.228-.853c0-.314.076-.598.228-.853.154-.257.36-.461.617-.613.257-.154.541-.231.853-.231.313 0 .598.077.852.231.257.152.462.356.614.613.154.255.231.539.231.853 0 .311-.077.595-.231.853a1.745 1.745 0 0 1-.614.617 1.629 1.629 0 0 1-.852.227ZM218.237 309c-.312 0-.596-.075-.853-.227a1.77 1.77 0 0 1-.617-.617 1.649 1.649 0 0 1-.228-.853c0-.314.076-.598.228-.853.154-.257.36-.461.617-.613.257-.154.541-.231.853-.231.313 0 .598.077.852.231.257.152.462.356.614.613.154.255.231.539.231.853 0 .311-.077.595-.231.853a1.745 1.745 0 0 1-.614.617 1.629 1.629 0 0 1-.852.227ZM226.979 311.361c-.553 0-1.042-.095-1.466-.285a2.406 2.406 0 0 1-.992-.787 1.89 1.89 0 0 1-.354-1.142 2.005 2.005 0 0 1 .779-1.628c.242-.19.512-.311.81-.363v-.046a1.589 1.589 0 0 1-.945-.633 1.843 1.843 0 0 1-.351-1.126 1.844 1.844 0 0 1 .32-1.08c.219-.319.518-.57.899-.753.38-.182.814-.274 1.3-.274.481 0 .91.093 1.288.278.381.183.681.434.899.753.219.316.33.675.332 1.076-.002.424-.123.8-.363 1.126-.239.327-.55.538-.933.633v.046c.296.052.562.173.798.363.24.188.43.423.571.706.144.28.218.588.22.922a1.93 1.93 0 0 1-.362 1.142 2.393 2.393 0 0 1-.996.787c-.421.19-.906.285-1.454.285Zm0-.976c.327 0 .609-.054.849-.162.239-.11.424-.263.555-.459.131-.198.198-.429.201-.694a1.308 1.308 0 0 0-.216-.729 1.445 1.445 0 0 0-.567-.498 1.798 1.798 0 0 0-.822-.181c-.311 0-.588.06-.829.181a1.43 1.43 0 0 0-.571.498 1.27 1.27 0 0 0-.205.729c-.003.265.061.496.189.694.131.196.318.349.559.459.242.108.528.162.857.162Zm0-3.676c.262 0 .495-.053.698-.158a1.205 1.205 0 0 0 .66-1.1 1.223 1.223 0 0 0-.178-.648 1.125 1.125 0 0 0-.474-.428 1.542 1.542 0 0 0-.706-.154c-.273 0-.512.051-.718.154-.203.1-.361.243-.474.428a1.19 1.19 0 0 0-.166.648c-.003.252.054.472.17.66.115.188.275.334.478.44.206.105.442.158.71.158ZM233.626 311.361c-.553 0-1.042-.095-1.466-.285a2.406 2.406 0 0 1-.992-.787 1.898 1.898 0 0 1-.355-1.142 2.018 2.018 0 0 1 .78-1.628c.241-.19.512-.311.81-.363v-.046a1.589 1.589 0 0 1-.945-.633 1.843 1.843 0 0 1-.351-1.126 1.844 1.844 0 0 1 .32-1.08c.218-.319.518-.57.899-.753.38-.182.814-.274 1.3-.274.481 0 .91.093 1.288.278.381.183.681.434.899.753.219.316.329.675.332 1.076-.003.424-.123.8-.363 1.126-.239.327-.55.538-.933.633v.046c.296.052.562.173.798.363.24.188.43.423.571.706.144.28.218.588.22.922a1.93 1.93 0 0 1-.362 1.142 2.4 2.4 0 0 1-.996.787c-.422.19-.906.285-1.454.285Zm0-.976c.326 0 .609-.054.849-.162.239-.11.424-.263.555-.459.131-.198.198-.429.201-.694a1.308 1.308 0 0 0-.216-.729 1.445 1.445 0 0 0-.567-.498 1.801 1.801 0 0 0-.822-.181c-.311 0-.588.06-.83.181a1.444 1.444 0 0 0-.571.498 1.276 1.276 0 0 0-.204.729c-.003.265.06.496.189.694.131.196.318.349.559.459.242.108.528.162.857.162Zm0-3.676c.262 0 .495-.053.698-.158.203-.106.363-.252.478-.44.119-.188.179-.408.182-.66a1.223 1.223 0 0 0-.178-.648 1.125 1.125 0 0 0-.474-.428 1.542 1.542 0 0 0-.706-.154c-.273 0-.512.051-.718.154-.203.1-.361.243-.474.428a1.19 1.19 0 0 0-.166.648c-.003.252.054.472.17.66.115.188.275.334.478.44.206.105.442.158.71.158ZM240.23 303.244c.353.003.7.067 1.042.193.342.126.651.332.926.618.278.285.499.671.663 1.157.167.484.252 1.085.255 1.805 0 .692-.07 1.308-.208 1.848-.139.538-.339.992-.598 1.362-.258.371-.57.652-.938.845a2.633 2.633 0 0 1-1.242.289c-.471 0-.889-.092-1.254-.277a2.386 2.386 0 0 1-.891-.768 2.529 2.529 0 0 1-.428-1.134h1.176c.078.339.234.614.471.825.239.209.548.313.926.313.579 0 1.03-.252 1.354-.756.324-.507.487-1.214.49-2.122h-.062a2.14 2.14 0 0 1-.501.571 2.257 2.257 0 0 1-.668.37c-.247.088-.51.131-.791.131-.455 0-.869-.112-1.242-.335a2.474 2.474 0 0 1-.891-.922 2.673 2.673 0 0 1-.332-1.339c0-.499.113-.952.34-1.358.229-.406.548-.728.957-.964.411-.24.893-.357 1.446-.352Zm.004 1.004a1.52 1.52 0 0 0-.814.223 1.59 1.59 0 0 0-.567.598c-.139.25-.208.528-.208.834 0 .306.066.583.2.833.137.247.322.444.556.59.236.144.506.216.81.216.226 0 .437-.044.633-.131.195-.087.366-.208.513-.363.146-.157.261-.334.343-.532.082-.198.124-.406.124-.625 0-.291-.07-.561-.209-.81a1.62 1.62 0 0 0-.563-.602 1.478 1.478 0 0 0-.818-.231ZM246.92 303.244c.352.003.699.067 1.041.193.342.126.651.332.926.618.278.285.499.671.664 1.157.167.484.252 1.085.254 1.805 0 .692-.069 1.308-.208 1.848-.139.538-.338.992-.598 1.362a2.61 2.61 0 0 1-.938.845 2.627 2.627 0 0 1-1.242.289c-.47 0-.888-.092-1.254-.277a2.386 2.386 0 0 1-.891-.768 2.54 2.54 0 0 1-.428-1.134h1.177c.077.339.234.614.47.825.239.209.548.313.926.313.579 0 1.03-.252 1.354-.756.324-.507.488-1.214.49-2.122h-.061a2.144 2.144 0 0 1-.502.571c-.198.159-.42.283-.667.37a2.34 2.34 0 0 1-.791.131c-.455 0-.87-.112-1.242-.335a2.484 2.484 0 0 1-.892-.922 2.672 2.672 0 0 1-.331-1.339c0-.499.113-.952.339-1.358.229-.406.548-.728.957-.964.411-.24.894-.357 1.447-.352Zm.003 1.004a1.52 1.52 0 0 0-.814.223 1.59 1.59 0 0 0-.567.598c-.139.25-.208.528-.208.834 0 .306.067.583.201.833.136.247.321.444.555.59.237.144.507.216.81.216.227 0 .437-.044.633-.131.195-.087.366-.208.513-.363.147-.157.261-.334.343-.532.083-.198.124-.406.124-.625 0-.291-.07-.561-.209-.81a1.62 1.62 0 0 0-.563-.602 1.478 1.478 0 0 0-.818-.231Z" fill="#E3E5E8" fill-opacity="0.72"/><path fill-rule="evenodd" clip-rule="evenodd" d="m259.458 307.305-2.692-2.693.823-.823 3.515 3.516-3.515 3.515-.823-.823 2.692-2.692Z" fill="#E3E5E8" fill-opacity="0.52"/><rect x="21.305" y="382.754" width="244.39" height="34.473" rx="17.236" fill="#F9F9FA"/><path d="M100.826 403.49v-7.521h2.681c.583 0 1.067.1 1.451.301a2 2 0 0 1 .867.834c.191.352.286.76.286 1.223 0 .46-.096.865-.29 1.215-.191.348-.48.618-.867.812-.384.193-.868.29-1.45.29h-2.031v-.977h1.928c.367 0 .666-.053.896-.158.233-.105.403-.258.511-.459a1.52 1.52 0 0 0 .161-.723c0-.284-.055-.531-.165-.739a1.067 1.067 0 0 0-.511-.477c-.23-.113-.532-.169-.907-.169h-1.425v6.548h-1.135Zm3.713-3.393 1.859 3.393h-1.293l-1.822-3.393h1.256Zm5.019 3.507c-.556 0-1.035-.119-1.436-.356a2.421 2.421 0 0 1-.926-1.01c-.215-.436-.323-.946-.323-1.532 0-.577.108-1.087.323-1.527a2.51 2.51 0 0 1 .911-1.032c.392-.248.85-.371 1.374-.371.318 0 .627.052.925.158.299.105.567.27.805.495.237.226.424.518.561.878.138.358.206.792.206 1.304V401h-4.484v-.822h3.408c0-.289-.059-.545-.176-.768a1.341 1.341 0 0 0-.496-.533 1.394 1.394 0 0 0-.742-.194 1.44 1.44 0 0 0-.808.227c-.228.15-.404.346-.529.588-.122.24-.183.501-.183.782v.643c0 .377.066.698.198.962.135.265.322.467.562.606.24.137.52.206.841.206.208 0 .398-.029.569-.088.172-.061.32-.152.445-.272.124-.12.22-.268.286-.444l1.039.187a1.872 1.872 0 0 1-.448.804 2.165 2.165 0 0 1-.804.533 3.01 3.01 0 0 1-1.098.187Zm8.096-5.755-2.046 5.641h-1.175l-2.049-5.641h1.179l1.428 4.341h.059l1.425-4.341h1.179Zm.825 5.641v-5.641h1.098v5.641h-1.098Zm.555-6.511a.699.699 0 0 1-.492-.191.62.62 0 0 1-.202-.463c0-.181.067-.336.202-.463a.689.689 0 0 1 .492-.194c.191 0 .354.064.488.194a.61.61 0 0 1 .206.463.617.617 0 0 1-.206.463.684.684 0 0 1-.488.191Zm4.245 6.625c-.556 0-1.034-.119-1.436-.356a2.413 2.413 0 0 1-.925-1.01c-.216-.436-.324-.946-.324-1.532 0-.577.108-1.087.324-1.527a2.5 2.5 0 0 1 .91-1.032c.392-.248.85-.371 1.374-.371.318 0 .627.052.925.158.299.105.567.27.805.495.237.226.425.518.562.878.137.358.205.792.205 1.304V401h-4.484v-.822h3.408c0-.289-.059-.545-.176-.768a1.341 1.341 0 0 0-.496-.533 1.391 1.391 0 0 0-.742-.194 1.44 1.44 0 0 0-.808.227c-.227.15-.404.346-.529.588-.122.24-.183.501-.183.782v.643c0 .377.066.698.198.962.135.265.322.467.562.606.24.137.52.206.841.206.208 0 .398-.029.569-.088a1.178 1.178 0 0 0 .731-.716l1.04.187a1.885 1.885 0 0 1-.449.804 2.165 2.165 0 0 1-.804.533 3.01 3.01 0 0 1-1.098.187Zm4.645-.114-1.66-5.641h1.135l1.105 4.143h.055l1.109-4.143h1.135l1.102 4.124h.055l1.098-4.124h1.135l-1.656 5.641h-1.12l-1.146-4.073h-.085l-1.146 4.073h-1.116Zm10.329 2.116c-.164 0-.314-.014-.448-.041a1.432 1.432 0 0 1-.302-.08l.265-.9c.201.054.379.077.536.07a.647.647 0 0 0 .415-.177c.123-.11.23-.29.323-.54l.136-.374-2.064-5.715h1.175l1.429 4.378h.059l1.428-4.378h1.179l-2.324 6.394a2.544 2.544 0 0 1-.412.746 1.59 1.59 0 0 1-.595.462c-.23.103-.497.155-.8.155Zm7.141-2.002c-.529 0-.991-.121-1.385-.363a2.458 2.458 0 0 1-.918-1.018c-.218-.436-.327-.945-.327-1.528 0-.585.109-1.097.327-1.535.218-.438.524-.778.918-1.021.394-.242.856-.363 1.385-.363s.99.121 1.384.363c.395.243.701.583.919 1.021.218.438.327.95.327 1.535 0 .583-.109 1.092-.327 1.528a2.453 2.453 0 0 1-.919 1.018c-.394.242-.855.363-1.384.363Zm.004-.922c.342 0 .626-.09.852-.271.225-.182.391-.423.499-.724.11-.301.165-.633.165-.995 0-.36-.055-.691-.165-.992a1.624 1.624 0 0 0-.499-.731c-.226-.183-.51-.275-.852-.275-.346 0-.632.092-.86.275a1.647 1.647 0 0 0-.503.731 2.92 2.92 0 0 0-.162.992c0 .362.054.694.162.995.11.301.278.542.503.724.228.181.514.271.86.271Zm7.218-1.531v-3.302h1.102v5.641h-1.08v-.977h-.059c-.13.302-.338.552-.624.753-.284.199-.638.298-1.062.298a1.91 1.91 0 0 1-.962-.239 1.688 1.688 0 0 1-.654-.716c-.156-.316-.235-.707-.235-1.172v-3.588h1.099v3.456c0 .384.106.691.319.918.213.228.49.342.83.342a1.354 1.354 0 0 0 1.124-.621c.137-.208.204-.472.202-.793Zm2.37 2.339v-5.641h1.062v.896h.059c.102-.303.284-.542.543-.716.262-.176.558-.264.889-.264a4.543 4.543 0 0 1 .466.025v1.051a1.832 1.832 0 0 0-.235-.041 2.252 2.252 0 0 0-.338-.025c-.259 0-.491.055-.694.165a1.22 1.22 0 0 0-.477.452 1.215 1.215 0 0 0-.177.653v3.445h-1.098Zm8.669.114c-.529 0-.99-.121-1.384-.363a2.453 2.453 0 0 1-.919-1.018c-.218-.436-.326-.945-.326-1.528 0-.585.108-1.097.326-1.535a2.45 2.45 0 0 1 .919-1.021c.394-.242.855-.363 1.384-.363.529 0 .991.121 1.385.363.394.243.7.583.918 1.021.218.438.327.95.327 1.535 0 .583-.109 1.092-.327 1.528a2.458 2.458 0 0 1-.918 1.018c-.394.242-.856.363-1.385.363Zm.004-.922c.343 0 .627-.09.852-.271.225-.182.392-.423.499-.724.111-.301.166-.633.166-.995 0-.36-.055-.691-.166-.992a1.617 1.617 0 0 0-.499-.731c-.225-.183-.509-.275-.852-.275-.345 0-.632.092-.86.275a1.647 1.647 0 0 0-.503.731 2.945 2.945 0 0 0-.161.992c0 .362.054.694.161.995.11.301.278.542.503.724.228.181.515.271.86.271Zm3.645.808v-5.641h1.061v.896h.059c.103-.303.284-.542.543-.716a1.56 1.56 0 0 1 .889-.264 4.55 4.55 0 0 1 .467.025v1.051a1.867 1.867 0 0 0-.235-.041 2.271 2.271 0 0 0-.338-.025c-.26 0-.491.055-.694.165a1.23 1.23 0 0 0-.654 1.105v3.445h-1.098Zm5.672.11c-.456 0-.862-.116-1.219-.348a2.381 2.381 0 0 1-.838-1.003c-.201-.436-.301-.959-.301-1.568 0-.61.102-1.131.305-1.565.206-.433.487-.765.845-.995.357-.23.762-.345 1.215-.345.35 0 .632.058.845.176.215.115.382.25.499.404.12.154.213.29.28.408h.066v-2.795h1.098v7.521h-1.073v-.877h-.091c-.067.12-.162.257-.287.411a1.584 1.584 0 0 1-.507.404c-.215.115-.494.172-.837.172Zm.242-.936c.316 0 .583-.083.801-.25.22-.169.387-.403.499-.701.115-.299.173-.647.173-1.043a2.86 2.86 0 0 0-.169-1.029 1.515 1.515 0 0 0-.496-.686c-.218-.164-.487-.247-.808-.247-.33 0-.606.086-.826.258-.22.171-.387.405-.5.701-.11.296-.165.631-.165 1.003 0 .377.056.716.169 1.017.113.301.279.54.5.716.222.174.497.261.822.261Zm6.345.94c-.556 0-1.035-.119-1.436-.356-.4-.24-.708-.577-.926-1.01-.215-.436-.323-.946-.323-1.532 0-.577.108-1.087.323-1.527a2.51 2.51 0 0 1 .911-1.032c.392-.248.849-.371 1.373-.371.319 0 .627.052.926.158.299.105.567.27.804.495.238.226.425.518.562.878.137.358.206.792.206 1.304V401h-4.485v-.822h3.409c0-.289-.059-.545-.177-.768a1.332 1.332 0 0 0-.495-.533 1.394 1.394 0 0 0-.742-.194c-.309 0-.578.076-.808.227-.228.15-.404.346-.529.588a1.69 1.69 0 0 0-.184.782v.643c0 .377.066.698.199.962.134.265.322.467.562.606.239.137.52.206.841.206.208 0 .397-.029.569-.088a1.18 1.18 0 0 0 .731-.716l1.039.187a1.883 1.883 0 0 1-.448.804 2.165 2.165 0 0 1-.804.533 3.01 3.01 0 0 1-1.098.187Zm3.431-.114v-5.641h1.062v.896h.059c.102-.303.284-.542.543-.716.262-.176.558-.264.889-.264a4.543 4.543 0 0 1 .466.025v1.051a1.832 1.832 0 0 0-.235-.041 2.252 2.252 0 0 0-.338-.025c-.259 0-.491.055-.694.165a1.22 1.22 0 0 0-.477.452 1.215 1.215 0 0 0-.176.653v3.445h-1.099Z" fill="#22262F"/><g clip-path="url(#order-box_svg__d)"><path d="M96.751 434.183h-2.844l.517-3.62-4.912 5.689h2.844l-.517 3.619 4.912-5.688Z" fill="#E3E5E8" fill-opacity="0.52"/></g><path d="M103.708 431.166v6.447h-.973v-6.447h.973ZM105.902 434.742v2.871h-.942v-4.835h.904v.787h.06c.111-.256.285-.462.522-.617.24-.156.541-.233.904-.233.329 0 .618.069.866.207.247.137.439.34.576.611.136.271.204.606.204 1.004v3.076h-.941v-2.962c0-.351-.091-.625-.274-.822-.182-.199-.433-.299-.752-.299-.219 0-.413.047-.583.142a1.012 1.012 0 0 0-.399.415 1.369 1.369 0 0 0-.145.655ZM113.793 433.958l-.853.151a1.001 1.001 0 0 0-.17-.311.834.834 0 0 0-.308-.243 1.117 1.117 0 0 0-.488-.094c-.267 0-.489.06-.668.179-.178.118-.267.27-.267.457 0 .161.06.291.179.39.12.099.313.179.579.242l.769.177c.444.103.776.261.994.475.219.214.328.492.328.834 0 .29-.084.548-.252.775a1.657 1.657 0 0 1-.696.529 2.574 2.574 0 0 1-1.029.192c-.542 0-.983-.116-1.326-.347a1.46 1.46 0 0 1-.629-.991l.91-.139a.866.866 0 0 0 .349.538c.176.12.406.18.689.18.309 0 .556-.064.74-.192.185-.13.277-.289.277-.475a.49.49 0 0 0-.17-.381c-.111-.103-.282-.181-.513-.233l-.818-.18c-.452-.103-.785-.266-1.001-.491-.214-.224-.321-.509-.321-.853 0-.285.079-.535.239-.749.159-.214.38-.381.661-.501.281-.121.603-.182.966-.182.523 0 .934.113 1.234.34.3.224.499.525.595.903ZM117.091 432.778v.755h-2.641v-.755h2.641Zm-1.933-1.159h.941v4.574c0 .183.028.32.082.413.055.09.125.152.211.185a.835.835 0 0 0 .287.048c.075 0 .141-.006.198-.016l.132-.025.17.777a1.83 1.83 0 0 1-.611.101 1.665 1.665 0 0 1-.692-.132 1.19 1.19 0 0 1-.519-.428c-.133-.193-.199-.436-.199-.728v-4.769ZM119.451 437.72c-.307 0-.584-.057-.831-.17a1.398 1.398 0 0 1-.589-.5c-.143-.219-.214-.486-.214-.803 0-.273.052-.498.157-.674a1.17 1.17 0 0 1 .425-.419c.179-.102.378-.18.598-.233.221-.052.445-.092.674-.119l.705-.082c.181-.023.312-.06.394-.11.082-.051.123-.132.123-.246v-.022c0-.275-.078-.488-.233-.639-.154-.151-.382-.226-.687-.226-.317 0-.566.07-.749.21-.18.139-.305.293-.374.463l-.885-.201c.105-.294.258-.531.46-.712a1.85 1.85 0 0 1 .702-.396c.264-.084.542-.126.834-.126.193 0 .397.023.614.069.218.044.421.126.61.246.191.119.348.29.469.513.122.22.183.506.183.859v3.211h-.919v-.661h-.038a1.34 1.34 0 0 1-.274.359 1.473 1.473 0 0 1-.469.293c-.191.077-.42.116-.686.116Zm.204-.755c.261 0 .483-.052.668-.155.187-.103.328-.237.425-.403a1.05 1.05 0 0 0 .148-.538v-.623a.5.5 0 0 1-.195.094 3.134 3.134 0 0 1-.325.073l-.355.053-.29.038a2.374 2.374 0 0 0-.501.116.867.867 0 0 0-.358.236.587.587 0 0 0-.133.403c0 .233.086.41.258.529.173.118.392.177.658.177ZM123.943 434.742v2.871h-.941v-4.835h.903v.787h.06c.112-.256.286-.462.523-.617.239-.156.54-.233.903-.233.33 0 .618.069.866.207.248.137.44.34.576.611.137.271.205.606.205 1.004v3.076h-.942v-2.962c0-.351-.091-.625-.273-.822-.183-.199-.434-.299-.753-.299-.218 0-.412.047-.582.142a1.02 1.02 0 0 0-.4.415 1.38 1.38 0 0 0-.145.655ZM130.469 432.778v.755h-2.642v-.755h2.642Zm-1.933-1.159h.941v4.574c0 .183.027.32.082.413.054.09.125.152.211.185a.83.83 0 0 0 .286.048c.076 0 .142-.006.198-.016l.133-.025.17.777a1.846 1.846 0 0 1-.611.101 1.666 1.666 0 0 1-.693-.132 1.19 1.19 0 0 1-.519-.428c-.132-.193-.198-.436-.198-.728v-4.769ZM133.678 439.426v-6.648h.92v.784h.078c.055-.101.134-.218.237-.35.102-.132.245-.248.428-.346.182-.101.424-.151.724-.151.39 0 .738.098 1.045.296.306.197.547.481.721.853.176.371.264.818.264 1.341 0 .522-.087.97-.261 1.344a2.038 2.038 0 0 1-.718.859c-.304.2-.652.299-1.042.299-.294 0-.534-.049-.721-.148a1.364 1.364 0 0 1-.434-.346 2.697 2.697 0 0 1-.243-.352h-.056v2.565h-.942Zm.923-4.231c0 .34.049.638.148.894.098.256.241.457.428.602a1.1 1.1 0 0 0 .686.214c.281 0 .516-.075.705-.224.189-.151.332-.356.428-.614.099-.258.148-.548.148-.872 0-.319-.048-.605-.144-.859a1.32 1.32 0 0 0-.429-.601c-.188-.147-.424-.221-.708-.221a1.13 1.13 0 0 0-.692.211 1.292 1.292 0 0 0-.425.589 2.447 2.447 0 0 0-.145.881ZM139.061 437.613v-4.835h.91v.768h.05c.088-.26.244-.465.466-.614.225-.151.479-.227.762-.227.059 0 .128.002.208.007.082.004.146.009.192.015v.901a1.652 1.652 0 0 0-.202-.035 1.875 1.875 0 0 0-.289-.022 1.22 1.22 0 0 0-.595.142 1.052 1.052 0 0 0-.561.947v2.953h-.941ZM144.238 437.711c-.453 0-.849-.104-1.187-.312a2.108 2.108 0 0 1-.787-.872c-.186-.374-.28-.81-.28-1.31 0-.501.094-.94.28-1.315.187-.376.45-.668.787-.876.338-.207.734-.311 1.187-.311.454 0 .849.104 1.187.311.338.208.6.5.787.876.187.375.28.814.28 1.315 0 .5-.093.936-.28 1.31a2.101 2.101 0 0 1-.787.872c-.338.208-.733.312-1.187.312Zm.003-.791c.294 0 .538-.077.731-.233.193-.155.335-.362.428-.62.094-.258.141-.542.141-.853 0-.308-.047-.592-.141-.85a1.388 1.388 0 0 0-.428-.626c-.193-.158-.437-.236-.731-.236-.296 0-.541.078-.736.236a1.41 1.41 0 0 0-.432.626 2.518 2.518 0 0 0-.138.85c0 .311.046.595.138.853.095.258.239.465.432.62.195.156.44.233.736.233ZM149.491 437.711c-.468 0-.871-.106-1.209-.318a2.098 2.098 0 0 1-.774-.885 2.94 2.94 0 0 1-.271-1.291c0-.491.092-.924.277-1.3.185-.377.445-.672.781-.884.335-.212.731-.318 1.186-.318.368 0 .695.068.983.204.287.135.519.324.695.567a1.7 1.7 0 0 1 .318.853h-.916a1.093 1.093 0 0 0-.346-.585c-.178-.164-.418-.246-.718-.246-.262 0-.492.069-.689.208a1.332 1.332 0 0 0-.457.585 2.24 2.24 0 0 0-.163.894c0 .353.053.657.16.913.107.256.258.455.454.595.197.141.429.211.695.211.179 0 .34-.032.485-.097a.991.991 0 0 0 .368-.287c.101-.124.171-.273.211-.447h.916a1.768 1.768 0 0 1-.305.837c-.17.246-.398.439-.683.58-.283.14-.616.211-.998.211ZM154.479 437.711c-.476 0-.886-.102-1.231-.306a2.07 2.07 0 0 1-.793-.865c-.185-.374-.277-.812-.277-1.313 0-.495.092-.932.277-1.31.187-.377.447-.672.781-.884a2.158 2.158 0 0 1 1.177-.318c.273 0 .537.045.793.135.256.09.486.232.69.425.203.193.364.444.481.752.118.307.177.679.177 1.118v.334h-3.844v-.705h2.921c0-.248-.05-.467-.151-.658a1.135 1.135 0 0 0-.425-.457 1.187 1.187 0 0 0-.636-.167c-.264 0-.495.065-.692.195a1.31 1.31 0 0 0-.453.504 1.455 1.455 0 0 0-.158.671v.551c0 .323.057.598.17.824.116.227.276.4.482.52.205.117.446.176.721.176.178 0 .341-.025.488-.076.147-.052.273-.13.381-.232.107-.103.188-.23.245-.381l.891.16a1.609 1.609 0 0 1-.384.69 1.867 1.867 0 0 1-.69.456 2.574 2.574 0 0 1-.941.161ZM161.133 433.958l-.853.151a1.022 1.022 0 0 0-.17-.311.845.845 0 0 0-.309-.243 1.117 1.117 0 0 0-.488-.094c-.266 0-.489.06-.667.179-.179.118-.268.27-.268.457 0 .161.06.291.18.39.119.099.312.179.579.242l.768.177c.445.103.777.261.995.475.218.214.327.492.327.834 0 .29-.084.548-.252.775a1.647 1.647 0 0 1-.695.529 2.575 2.575 0 0 1-1.03.192c-.541 0-.983-.116-1.325-.347a1.465 1.465 0 0 1-.63-.991l.91-.139a.868.868 0 0 0 .35.538c.176.12.406.18.689.18.308 0 .555-.064.74-.192.184-.13.277-.289.277-.475a.493.493 0 0 0-.17-.381c-.111-.103-.282-.181-.513-.233l-.819-.18c-.451-.103-.785-.266-1.001-.491-.214-.224-.321-.509-.321-.853 0-.285.08-.535.239-.749.16-.214.38-.381.661-.501.282-.121.604-.182.967-.182.522 0 .934.113 1.234.34.3.224.498.525.595.903ZM165.797 433.958l-.853.151a1.022 1.022 0 0 0-.17-.311.845.845 0 0 0-.309-.243 1.117 1.117 0 0 0-.488-.094c-.266 0-.489.06-.667.179-.178.118-.268.27-.268.457 0 .161.06.291.18.39.119.099.312.179.579.242l.768.177c.445.103.777.261.995.475.218.214.327.492.327.834 0 .29-.084.548-.252.775a1.647 1.647 0 0 1-.695.529 2.575 2.575 0 0 1-1.03.192c-.541 0-.983-.116-1.325-.347a1.465 1.465 0 0 1-.63-.991l.91-.139a.868.868 0 0 0 .35.538c.176.12.406.18.689.18.309 0 .555-.064.74-.192.184-.13.277-.289.277-.475a.493.493 0 0 0-.17-.381c-.111-.103-.282-.181-.513-.233l-.819-.18c-.451-.103-.785-.266-1.001-.491-.214-.224-.321-.509-.321-.853 0-.285.08-.535.239-.749.16-.214.38-.381.661-.501.282-.121.604-.182.967-.182.522 0 .934.113 1.234.34.3.224.498.525.595.903ZM166.838 437.613v-4.835h.941v4.835h-.941Zm.475-5.581a.6.6 0 0 1-.422-.164.534.534 0 0 1-.173-.397c0-.155.058-.287.173-.396a.59.59 0 0 1 .422-.167.58.58 0 0 1 .419.167.522.522 0 0 1 .176.396.53.53 0 0 1-.176.397.59.59 0 0 1-.419.164ZM169.898 434.742v2.871h-.942v-4.835h.904v.787h.06c.111-.256.285-.462.522-.617.24-.156.541-.233.904-.233.329 0 .618.069.865.207.248.137.44.34.577.611.136.271.204.606.204 1.004v3.076h-.941v-2.962c0-.351-.091-.625-.274-.822-.183-.199-.433-.299-.752-.299-.219 0-.413.047-.583.142a1.02 1.02 0 0 0-.4.415 1.38 1.38 0 0 0-.144.655ZM176.193 439.527c-.384 0-.714-.05-.991-.151a1.92 1.92 0 0 1-.674-.4 1.676 1.676 0 0 1-.39-.545l.809-.333c.056.092.132.19.226.293.097.104.227.194.391.267.165.074.378.11.639.11.356 0 .651-.087.884-.261.233-.172.35-.447.35-.825v-.95h-.06a2.217 2.217 0 0 1-.246.343 1.317 1.317 0 0 1-.434.327c-.185.092-.425.139-.721.139-.382 0-.726-.09-1.033-.268a1.903 1.903 0 0 1-.724-.796c-.176-.353-.264-.786-.264-1.301 0-.514.087-.954.261-1.322.176-.367.418-.648.724-.843a1.88 1.88 0 0 1 1.042-.296c.3 0 .543.05.727.151.185.098.329.214.432.346.105.132.185.249.242.35h.069v-.784h.923v4.942c0 .416-.097.757-.29 1.023a1.698 1.698 0 0 1-.784.592 3.022 3.022 0 0 1-1.108.192Zm-.009-2.767a1.2 1.2 0 0 0 .686-.189c.189-.128.332-.311.428-.548a2.24 2.24 0 0 0 .148-.859c0-.325-.048-.612-.145-.86a1.277 1.277 0 0 0-.425-.579 1.121 1.121 0 0 0-.692-.211c-.284 0-.52.074-.709.221a1.336 1.336 0 0 0-.428.591c-.094.25-.141.529-.141.838 0 .317.048.595.144.834.097.239.24.426.429.56.191.135.426.202.705.202ZM184.063 432.778v.755h-2.641v-.755h2.641Zm-1.933-1.159h.941v4.574c0 .183.028.32.082.413.055.09.125.152.211.185a.835.835 0 0 0 .287.048c.075 0 .141-.006.198-.016l.132-.025.17.777a1.846 1.846 0 0 1-.611.101 1.665 1.665 0 0 1-.692-.132 1.199 1.199 0 0 1-.52-.428c-.132-.193-.198-.436-.198-.728v-4.769ZM185.015 437.613v-4.835h.942v4.835h-.942Zm.476-5.581a.6.6 0 0 1-.422-.164.534.534 0 0 1-.173-.397c0-.155.058-.287.173-.396a.59.59 0 0 1 .422-.167.58.58 0 0 1 .419.167.522.522 0 0 1 .176.396.53.53 0 0 1-.176.397.59.59 0 0 1-.419.164ZM187.134 437.613v-4.835h.904v.787h.06c.1-.267.265-.475.494-.624a1.46 1.46 0 0 1 .822-.226c.323 0 .593.075.812.226.22.151.383.359.488.624h.05c.115-.258.299-.464.551-.617.252-.156.552-.233.9-.233.439 0 .797.137 1.074.412.279.275.418.69.418 1.244v3.242h-.941v-3.154c0-.328-.089-.565-.267-.712a.975.975 0 0 0-.639-.22c-.307 0-.545.094-.715.283-.17.187-.255.427-.255.721v3.082h-.938v-3.214c0-.262-.082-.473-.246-.633-.163-.159-.376-.239-.639-.239a.91.91 0 0 0-.494.142c-.149.092-.27.221-.362.387a1.19 1.19 0 0 0-.135.576v2.981h-.942ZM196.964 437.711c-.476 0-.886-.102-1.231-.306a2.07 2.07 0 0 1-.793-.865c-.185-.374-.277-.812-.277-1.313 0-.495.092-.932.277-1.31.187-.377.447-.672.781-.884a2.158 2.158 0 0 1 1.177-.318c.273 0 .537.045.793.135.256.09.486.232.69.425.203.193.364.444.482.752.117.307.176.679.176 1.118v.334h-3.844v-.705h2.921c0-.248-.05-.467-.151-.658a1.135 1.135 0 0 0-.425-.457 1.187 1.187 0 0 0-.636-.167c-.264 0-.495.065-.692.195a1.31 1.31 0 0 0-.453.504 1.455 1.455 0 0 0-.158.671v.551c0 .323.057.598.17.824.116.227.276.4.482.52.205.117.446.176.721.176.178 0 .341-.025.488-.076.147-.052.274-.13.381-.232.107-.103.188-.23.245-.381l.891.16a1.609 1.609 0 0 1-.384.69 1.863 1.863 0 0 1-.689.456 2.583 2.583 0 0 1-.942.161Z" fill="#E3E5E8" fill-opacity="0.52"/><rect x="1.327" y="1.327" width="284.346" height="462.982" rx="14.265" stroke="#fff" stroke-opacity="0.05" stroke-width="1.346"/><defs><clipPath id="order-box_svg__c"><path fill="#fff" transform="translate(198.846 259.936)" d="M0 0h6v12H0z"/></clipPath><clipPath id="order-box_svg__d"><path fill="#fff" transform="translate(87.96 430.046)" d="M0 0h10.342v10.342H0z"/></clipPath><filter id="order-box_svg__a" x="135.804" y="96.414" width="38.266" height="46.347" filterUnits="userSpaceOnUse" color-interpolation-filters="sRGB"><feFlood flood-opacity="0" result="BackgroundImageFix"/><feGaussianBlur in="BackgroundImageFix" stdDeviation="6.796"/><feComposite in2="SourceAlpha" operator="in" result="effect1_backgroundBlur_9116_129857"/><feColorMatrix in="SourceAlpha" values="0 0 0 0 0 0 0 0 0 0 0 0 0 0 0 0 0 0 127 0" result="hardAlpha"/><feOffset/><feGaussianBlur stdDeviation="1.127"/><feComposite in2="hardAlpha" operator="out"/><feColorMatrix values="0 0 0 0 0.0823529 0 0 0 0 0.0941176 0 0 0 0 0.117647 0 0 0 0.1 0"/><feBlend in2="effect1_backgroundBlur_9116_129857" result="effect2_dropShadow_9116_129857"/><feColorMatrix in="SourceAlpha" values="0 0 0 0 0 0 0 0 0 0 0 0 0 0 0 0 0 0 127 0" result="hardAlpha"/><feOffset dy="1.127"/><feGaussianBlur stdDeviation="1.691"/><feComposite in2="hardAlpha" operator="out"/><feColorMatrix values="0 0 0 0 0 0 0 0 0 0 0 0 0 0 0 0 0 0 0.08 0"/><feBlend in2="effect2_dropShadow_9116_129857" result="effect3_dropShadow_9116_129857"/><feBlend in="SourceGraphic" in2="effect3_dropShadow_9116_129857" result="shape"/></filter><filter id="order-box_svg__b" x="147.172" y="107.994" width="15.529" height="23.189" filterUnits="userSpaceOnUse" color-interpolation-filters="sRGB"><feFlood flood-opacity="0" result="BackgroundImageFix"/><feGaussianBlur in="BackgroundImageFix" stdDeviation="2.416"/><feComposite in2="SourceAlpha" operator="in" result="effect1_backgroundBlur_9116_129857"/><feColorMatrix in="SourceAlpha" values="0 0 0 0 0 0 0 0 0 0 0 0 0 0 0 0 0 0 127 0" result="hardAlpha"/><feOffset/><feGaussianBlur stdDeviation="1.127"/><feComposite in2="hardAlpha" operator="out"/><feColorMatrix values="0 0 0 0 0.0515625 0 0 0 0 0.0929804 0 0 0 0 0.225 0 0 0 0.4 0"/><feBlend in2="effect1_backgroundBlur_9116_129857" result="effect2_dropShadow_9116_129857"/><feBlend in="SourceGraphic" in2="effect2_dropShadow_9116_129857" result="shape"/></filter></defs></svg>